<svg width="476" height="162" viewBox="0 0 476 162" fill="none" xmlns="http://www.w3.org/2000/svg">
<g clip-path="url(#clip0_4401_31488)">
<path d="M0 16C0 7.16344 7.16345 0 16 0H460C468.837 0 476 7.16344 476 16V146C476 154.837 468.837 162 460 162H16C7.16344 162 0 154.837 0 146V16Z" fill="#FEFEFE"/>
<path d="M17.2897 33V21.3636H21.4374C22.3427 21.3636 23.0927 21.5284 23.6874 21.858C24.2821 22.1875 24.7272 22.6383 25.0226 23.2102C25.3181 23.7784 25.4658 24.4186 25.4658 25.1307C25.4658 25.8466 25.3162 26.4905 25.0169 27.0625C24.7215 27.6307 24.2745 28.0814 23.676 28.4148C23.0813 28.7443 22.3332 28.9091 21.4317 28.9091H18.5794V27.4205H21.2726C21.8446 27.4205 22.3086 27.322 22.6647 27.125C23.0207 26.9242 23.2821 26.6515 23.4487 26.3068C23.6154 25.9621 23.6987 25.5701 23.6987 25.1307C23.6987 24.6913 23.6154 24.3011 23.4487 23.9602C23.2821 23.6193 23.0188 23.3523 22.659 23.1591C22.3029 22.9659 21.8332 22.8693 21.2499 22.8693H19.0453V33H17.2897ZM32.7561 29.3807V24.2727H34.4606V33H32.7902V31.4886H32.6993C32.4985 31.9545 32.1765 32.3428 31.7334 32.6534C31.294 32.9602 30.7466 33.1136 30.0913 33.1136C29.5307 33.1136 29.0345 32.9905 28.6027 32.7443C28.1746 32.4943 27.8375 32.125 27.5913 31.6364C27.3489 31.1477 27.2277 30.5436 27.2277 29.8239V24.2727H28.9265V29.6193C28.9265 30.214 29.0913 30.6875 29.4209 31.0398C29.7504 31.392 30.1784 31.5682 30.7049 31.5682C31.0231 31.5682 31.3394 31.4886 31.6538 31.3295C31.972 31.1705 32.2352 30.9299 32.4436 30.608C32.6557 30.286 32.7599 29.8769 32.7561 29.3807ZM36.7197 33V21.3636H38.4185V25.6875H38.5208C38.6193 25.5057 38.7613 25.2955 38.9469 25.0568C39.1325 24.8182 39.3901 24.6098 39.7197 24.4318C40.0492 24.25 40.4848 24.1591 41.0265 24.1591C41.731 24.1591 42.3598 24.3371 42.9128 24.6932C43.4659 25.0492 43.8996 25.5625 44.214 26.233C44.5322 26.9034 44.6912 27.7102 44.6912 28.6534C44.6912 29.5966 44.5341 30.4053 44.2197 31.0795C43.9053 31.75 43.4734 32.267 42.9242 32.6307C42.375 32.9905 41.7481 33.1705 41.0435 33.1705C40.5132 33.1705 40.0795 33.0814 39.7424 32.9034C39.4091 32.7254 39.1477 32.517 38.9583 32.2784C38.7689 32.0398 38.6231 31.8277 38.5208 31.642H38.3787V33H36.7197ZM38.3844 28.6364C38.3844 29.25 38.4734 29.7879 38.6515 30.25C38.8295 30.7121 39.0871 31.0739 39.4242 31.3352C39.7613 31.5928 40.1742 31.7216 40.6628 31.7216C41.1704 31.7216 41.5947 31.5871 41.9356 31.3182C42.2765 31.0455 42.5341 30.6761 42.7083 30.2102C42.8863 29.7443 42.9753 29.2197 42.9753 28.6364C42.9753 28.0606 42.8882 27.5436 42.714 27.0852C42.5435 26.6269 42.2859 26.2652 41.9412 26C41.6003 25.7348 41.1742 25.6023 40.6628 25.6023C40.1704 25.6023 39.7537 25.7292 39.4128 25.983C39.0757 26.2367 38.82 26.5909 38.6458 27.0455C38.4716 27.5 38.3844 28.0303 38.3844 28.6364ZM48.1378 21.3636V33H46.4389V21.3636H48.1378ZM50.2633 33V24.2727H51.9622V33H50.2633ZM51.1213 22.9261C50.8258 22.9261 50.572 22.8277 50.3599 22.6307C50.1516 22.4299 50.0474 22.1913 50.0474 21.9148C50.0474 21.6345 50.1516 21.3958 50.3599 21.1989C50.572 20.9981 50.8258 20.8977 51.1213 20.8977C51.4167 20.8977 51.6686 20.9981 51.8769 21.1989C52.0891 21.3958 52.1951 21.6345 52.1951 21.9148C52.1951 22.1913 52.0891 22.4299 51.8769 22.6307C51.6686 22.8277 51.4167 22.9261 51.1213 22.9261ZM60.6274 26.4034L59.0877 26.6761C59.0233 26.4792 58.921 26.2917 58.7809 26.1136C58.6445 25.9356 58.4589 25.7898 58.224 25.6761C57.9892 25.5625 57.6956 25.5057 57.3434 25.5057C56.8623 25.5057 56.4608 25.6136 56.1388 25.8295C55.8168 26.0417 55.6559 26.3163 55.6559 26.6534C55.6559 26.9451 55.7638 27.1799 55.9797 27.358C56.1956 27.536 56.5441 27.6818 57.0252 27.7955L58.4115 28.1136C59.2146 28.2992 59.813 28.5852 60.207 28.9716C60.6009 29.358 60.7979 29.8598 60.7979 30.4773C60.7979 31 60.6464 31.4659 60.3434 31.875C60.0441 32.2803 59.6255 32.5985 59.0877 32.8295C58.5536 33.0606 57.9343 33.1761 57.2297 33.1761C56.2524 33.1761 55.4551 32.9678 54.8377 32.5511C54.2202 32.1307 53.8415 31.5341 53.7013 30.7614L55.3434 30.5114C55.4456 30.9394 55.6559 31.2633 55.974 31.483C56.2922 31.6989 56.707 31.8068 57.2184 31.8068C57.7752 31.8068 58.2202 31.6913 58.5536 31.4602C58.8869 31.2254 59.0536 30.9394 59.0536 30.6023C59.0536 30.3295 58.9513 30.1004 58.7468 29.9148C58.546 29.7292 58.2373 29.589 57.8206 29.4943L56.3434 29.1705C55.529 28.9848 54.9267 28.6894 54.5365 28.2841C54.1502 27.8788 53.957 27.3655 53.957 26.7443C53.957 26.2292 54.1009 25.7784 54.3888 25.392C54.6767 25.0057 55.0744 24.7045 55.582 24.4886C56.0896 24.2689 56.671 24.1591 57.3263 24.1591C58.2695 24.1591 59.0119 24.3636 59.5536 24.7727C60.0952 25.178 60.4532 25.7216 60.6274 26.4034ZM64.2047 27.8182V33H62.5058V21.3636H64.1819V25.6932H64.2899C64.4944 25.2235 64.8069 24.8504 65.2274 24.5739C65.6478 24.2973 66.1971 24.1591 66.8751 24.1591C67.4736 24.1591 67.9963 24.2822 68.4433 24.5284C68.8941 24.7746 69.2425 25.142 69.4888 25.6307C69.7388 26.1155 69.8638 26.7216 69.8638 27.4489V33H68.1649V27.6534C68.1649 27.0133 68.0001 26.517 67.6706 26.1648C67.341 25.8087 66.8827 25.6307 66.2956 25.6307C65.8941 25.6307 65.5342 25.7159 65.216 25.8864C64.9016 26.0568 64.6535 26.3068 64.4717 26.6364C64.2937 26.9621 64.2047 27.3561 64.2047 27.8182Z" fill="#040404"/>
<path d="M17.233 57V46.8182H20.6733C21.4721 46.8182 22.125 46.9624 22.6321 47.2507C23.1425 47.5357 23.5204 47.9219 23.7656 48.4091C24.0109 48.8963 24.1335 49.4399 24.1335 50.0398C24.1335 50.6397 24.0109 51.1849 23.7656 51.6754C23.5237 52.166 23.1491 52.5571 22.642 52.8487C22.1349 53.1371 21.4853 53.2812 20.6932 53.2812H18.2273V52.1875H20.6534C21.2003 52.1875 21.6394 52.093 21.9709 51.9041C22.3023 51.7152 22.5426 51.46 22.6918 51.1385C22.8442 50.8137 22.9205 50.4474 22.9205 50.0398C22.9205 49.6321 22.8442 49.2675 22.6918 48.946C22.5426 48.6245 22.3007 48.3726 21.9659 48.1903C21.6312 48.0047 21.187 47.9119 20.6335 47.9119H18.4659V57H17.233ZM30.6331 53.8778V49.3636H31.8064V57H30.6331V55.7074H30.5535C30.3746 56.0952 30.0962 56.425 29.7183 56.6967C29.3405 56.9652 28.8632 57.0994 28.2865 57.0994C27.8092 57.0994 27.385 56.995 27.0138 56.7862C26.6426 56.5741 26.3509 56.2559 26.1388 55.8317C25.9266 55.4041 25.8206 54.8655 25.8206 54.2159V49.3636H26.9939V54.1364C26.9939 54.6932 27.1497 55.1373 27.4612 55.4688C27.7761 55.8002 28.1771 55.9659 28.6643 55.9659C28.956 55.9659 29.2526 55.8913 29.5542 55.7422C29.8592 55.593 30.1144 55.3643 30.3199 55.0561C30.5287 54.7479 30.6331 54.3551 30.6331 53.8778ZM33.9744 57V46.8182H35.1477V50.5767H35.2472C35.3333 50.4441 35.4527 50.2751 35.6051 50.0696C35.7609 49.8608 35.983 49.6752 36.2713 49.5128C36.563 49.3471 36.9574 49.2642 37.4546 49.2642C38.0975 49.2642 38.6643 49.425 39.1548 49.7464C39.6454 50.0679 40.0282 50.5237 40.3033 51.1136C40.5784 51.7036 40.7159 52.3996 40.7159 53.2017C40.7159 54.0104 40.5784 54.7114 40.3033 55.3047C40.0282 55.8946 39.647 56.352 39.1598 56.6768C38.6726 56.9983 38.1108 57.1591 37.4744 57.1591C36.9839 57.1591 36.5912 57.0779 36.2962 56.9155C36.0012 56.7498 35.7742 56.5625 35.6151 56.3537C35.456 56.1416 35.3333 55.9659 35.2472 55.8267H35.108V57H33.9744ZM35.1278 53.1818C35.1278 53.7585 35.2124 54.2673 35.3814 54.7081C35.5504 55.1456 35.7974 55.4886 36.1222 55.7372C36.447 55.9825 36.8447 56.1051 37.3153 56.1051C37.8059 56.1051 38.2152 55.9759 38.5433 55.7173C38.8748 55.4555 39.1233 55.1042 39.2891 54.6634C39.4581 54.2192 39.5426 53.7254 39.5426 53.1818C39.5426 52.6449 39.4598 52.161 39.294 51.7301C39.1316 51.2959 38.8847 50.9529 38.5533 50.701C38.2251 50.4458 37.8125 50.3182 37.3153 50.3182C36.8381 50.3182 36.437 50.4392 36.1122 50.6811C35.7874 50.9197 35.5421 51.2545 35.3764 51.6854C35.2107 52.1129 35.1278 52.6117 35.1278 53.1818ZM43.544 46.8182V57H42.3707V46.8182H43.544ZM45.5529 57V49.3636H46.7262V57H45.5529ZM46.1495 48.0909C45.9208 48.0909 45.7236 48.013 45.5579 47.8572C45.3955 47.7015 45.3143 47.5142 45.3143 47.2955C45.3143 47.0767 45.3955 46.8894 45.5579 46.7337C45.7236 46.5779 45.9208 46.5 46.1495 46.5C46.3782 46.5 46.5738 46.5779 46.7362 46.7337C46.9019 46.8894 46.9847 47.0767 46.9847 47.2955C46.9847 47.5142 46.9019 47.7015 46.7362 47.8572C46.5738 48.013 46.3782 48.0909 46.1495 48.0909ZM54.1443 51.0739L53.0903 51.3722C53.024 51.1965 52.9262 51.0258 52.797 50.8601C52.671 50.6911 52.4987 50.5518 52.2799 50.4425C52.0612 50.3331 51.7811 50.2784 51.4397 50.2784C50.9724 50.2784 50.583 50.3861 50.2714 50.6016C49.9632 50.8137 49.8091 51.0838 49.8091 51.4119C49.8091 51.7036 49.9151 51.9339 50.1272 52.103C50.3394 52.272 50.6708 52.4129 51.1216 52.5256L52.2551 52.804C52.9378 52.9697 53.4466 53.2232 53.7814 53.5646C54.1161 53.9027 54.2835 54.3385 54.2835 54.8722C54.2835 55.3097 54.1575 55.7008 53.9056 56.0455C53.6571 56.3902 53.3091 56.6619 52.8616 56.8608C52.4142 57.0597 51.8938 57.1591 51.3005 57.1591C50.5216 57.1591 49.877 56.9901 49.3666 56.652C48.8562 56.3139 48.533 55.8201 48.3971 55.1705L49.5108 54.892C49.6168 55.303 49.8173 55.6113 50.1123 55.8168C50.4106 56.0223 50.8001 56.125 51.2806 56.125C51.8275 56.125 52.2617 56.009 52.5832 55.777C52.908 55.5417 53.0704 55.2599 53.0704 54.9318C53.0704 54.6667 52.9776 54.4446 52.792 54.2656C52.6064 54.0833 52.3214 53.9474 51.9369 53.858L50.6642 53.5597C49.9648 53.3939 49.4511 53.1371 49.123 52.7891C48.7982 52.4377 48.6358 51.9986 48.6358 51.4716C48.6358 51.0407 48.7567 50.6596 48.9987 50.3281C49.244 49.9967 49.577 49.7365 49.998 49.5476C50.4222 49.3587 50.9028 49.2642 51.4397 49.2642C52.1954 49.2642 52.7887 49.4299 53.2196 49.7614C53.6538 50.0928 53.962 50.5303 54.1443 51.0739ZM57.0829 52.4062V57H55.9096V46.8182H57.0829V50.5568H57.1824C57.3613 50.1624 57.6298 49.8492 57.9878 49.6172C58.349 49.3819 58.8296 49.2642 59.4295 49.2642C59.9499 49.2642 60.4056 49.3686 60.7967 49.5774C61.1878 49.7829 61.4911 50.0994 61.7065 50.527C61.9253 50.9512 62.0346 51.4915 62.0346 52.1477V57H60.8613V52.2273C60.8613 51.6207 60.7039 51.1518 60.389 50.8203C60.0775 50.4856 59.645 50.3182 59.0915 50.3182C58.707 50.3182 58.3623 50.3994 58.0574 50.5618C57.7558 50.7242 57.5171 50.9612 57.3415 51.2727C57.1691 51.5843 57.0829 51.9621 57.0829 52.4062ZM70.9409 57.1591C70.225 57.1591 69.6085 56.9901 69.0915 56.652C68.5744 56.3139 68.1767 55.8482 67.8983 55.255C67.6199 54.6617 67.4807 53.9839 67.4807 53.2216C67.4807 52.446 67.6232 51.7616 67.9082 51.1683C68.1966 50.5717 68.5976 50.1061 69.1114 49.7713C69.6284 49.4332 70.2316 49.2642 70.921 49.2642C71.4579 49.2642 71.9419 49.3636 72.3727 49.5625C72.8036 49.7614 73.1566 50.0398 73.4317 50.3977C73.7068 50.7557 73.8775 51.1733 73.9437 51.6506H72.7704C72.681 51.3026 72.4821 50.9943 72.1739 50.7259C71.8689 50.4541 71.4579 50.3182 70.9409 50.3182C70.4835 50.3182 70.0825 50.4375 69.7378 50.6761C69.3964 50.9115 69.1296 51.2446 68.9374 51.6754C68.7484 52.103 68.654 52.6051 68.654 53.1818C68.654 53.7718 68.7468 54.2855 68.9324 54.723C69.1213 55.1605 69.3865 55.5002 69.7278 55.7422C70.0725 55.9841 70.4769 56.1051 70.9409 56.1051C71.2458 56.1051 71.5226 56.0521 71.7712 55.946C72.0197 55.84 72.2302 55.6875 72.4026 55.4886C72.5749 55.2898 72.6975 55.0511 72.7704 54.7727H73.9437C73.8775 55.2235 73.7134 55.6295 73.4516 55.9908C73.193 56.3487 72.85 56.6338 72.4224 56.8459C71.9982 57.0547 71.5044 57.1591 70.9409 57.1591ZM76.6922 52.4062V57H75.5189V46.8182H76.6922V50.5568H76.7917C76.9706 50.1624 77.2391 49.8492 77.5971 49.6172C77.9583 49.3819 78.4389 49.2642 79.0388 49.2642C79.5592 49.2642 80.0149 49.3686 80.406 49.5774C80.7971 49.7829 81.1004 50.0994 81.3158 50.527C81.5346 50.9512 81.6439 51.4915 81.6439 52.1477V57H80.4706V52.2273C80.4706 51.6207 80.3132 51.1518 79.9983 50.8203C79.6868 50.4856 79.2543 50.3182 78.7008 50.3182C78.3163 50.3182 77.9716 50.3994 77.6667 50.5618C77.3651 50.7242 77.1264 50.9612 76.9508 51.2727C76.7784 51.5843 76.6922 51.9621 76.6922 52.4062ZM85.8976 57.179C85.4137 57.179 84.9745 57.0878 84.5801 56.9055C84.1857 56.7199 83.8725 56.4531 83.6405 56.1051C83.4085 55.7538 83.2925 55.3295 83.2925 54.8324C83.2925 54.3949 83.3786 54.0402 83.551 53.7685C83.7233 53.4934 83.9537 53.2779 84.242 53.1222C84.5304 52.9664 84.8486 52.8504 85.1966 52.7741C85.5479 52.6946 85.9009 52.6316 86.2555 52.5852C86.7196 52.5256 87.0957 52.4808 87.3841 52.451C87.6758 52.4179 87.8879 52.3632 88.0205 52.2869C88.1563 52.2107 88.2243 52.0781 88.2243 51.8892V51.8494C88.2243 51.3589 88.0901 50.9777 87.8216 50.706C87.5564 50.4342 87.1537 50.2983 86.6135 50.2983C86.0534 50.2983 85.6142 50.4209 85.296 50.6662C84.9778 50.9115 84.7541 51.1733 84.6249 51.4517L83.5112 51.054C83.7101 50.59 83.9752 50.2287 84.3067 49.9702C84.6414 49.7083 85.006 49.526 85.4004 49.4233C85.7982 49.3172 86.1893 49.2642 86.5737 49.2642C86.819 49.2642 87.1007 49.294 87.4189 49.3537C87.7404 49.41 88.0503 49.5277 88.3486 49.7067C88.6502 49.8857 88.9004 50.1558 89.0993 50.517C89.2982 50.8783 89.3976 51.3622 89.3976 51.9688V57H88.2243V55.9659H88.1646C88.0851 56.1316 87.9525 56.3089 87.7669 56.4979C87.5813 56.6868 87.3344 56.8475 87.0261 56.9801C86.7179 57.1127 86.3417 57.179 85.8976 57.179ZM86.0766 56.125C86.5406 56.125 86.9317 56.0339 87.2499 55.8516C87.5714 55.6693 87.8133 55.4339 87.9757 55.1456C88.1414 54.8572 88.2243 54.554 88.2243 54.2358V53.1619C88.1746 53.2216 88.0652 53.2763 87.8962 53.326C87.7304 53.3724 87.5382 53.4138 87.3195 53.4503C87.104 53.4834 86.8936 53.5133 86.6881 53.5398C86.4859 53.563 86.3218 53.5829 86.1959 53.5994C85.891 53.6392 85.6059 53.7038 85.3408 53.7933C85.0789 53.8795 84.8668 54.0104 84.7044 54.1861C84.5453 54.3584 84.4658 54.5937 84.4658 54.892C84.4658 55.2997 84.6166 55.608 84.9182 55.8168C85.2231 56.0223 85.6092 56.125 86.0766 56.125ZM92.5724 52.4062V57H91.3991V49.3636H92.5326V50.5568H92.6321C92.811 50.169 93.0828 49.8575 93.4474 49.6222C93.812 49.3835 94.2826 49.2642 94.8593 49.2642C95.3764 49.2642 95.8288 49.3703 96.2166 49.5824C96.6044 49.7912 96.906 50.1094 97.1214 50.5369C97.3368 50.9612 97.4446 51.4981 97.4446 52.1477V57H96.2713V52.2273C96.2713 51.6274 96.1155 51.16 95.8039 50.8253C95.4924 50.4872 95.0648 50.3182 94.5213 50.3182C94.1467 50.3182 93.812 50.3994 93.517 50.5618C93.2253 50.7242 92.995 50.9612 92.8259 51.2727C92.6569 51.5843 92.5724 51.9621 92.5724 52.4062ZM102.531 60.0227C101.964 60.0227 101.477 59.9498 101.069 59.804C100.662 59.6615 100.322 59.4725 100.05 59.2372C99.7816 59.0052 99.5679 58.7566 99.4088 58.4915L100.343 57.8352C100.449 57.9744 100.584 58.1335 100.746 58.3125C100.909 58.4948 101.131 58.6522 101.412 58.7848C101.697 58.9207 102.07 58.9886 102.531 58.9886C103.147 58.9886 103.656 58.8395 104.057 58.5412C104.458 58.2429 104.659 57.7756 104.659 57.1392V55.5881H104.559C104.473 55.7273 104.351 55.8996 104.191 56.1051C104.036 56.3073 103.81 56.4879 103.515 56.647C103.224 56.8028 102.829 56.8807 102.332 56.8807C101.716 56.8807 101.162 56.7348 100.672 56.4432C100.184 56.1515 99.7982 55.7273 99.5132 55.1705C99.2315 54.6136 99.0906 53.9375 99.0906 53.142C99.0906 52.3598 99.2281 51.6787 99.5032 51.0987C99.7783 50.5154 100.161 50.0646 100.652 49.7464C101.142 49.425 101.709 49.2642 102.352 49.2642C102.849 49.2642 103.244 49.3471 103.535 49.5128C103.83 49.6752 104.056 49.8608 104.211 50.0696C104.37 50.2751 104.493 50.4441 104.579 50.5767H104.699V49.3636H105.832V57.2188C105.832 57.875 105.683 58.4086 105.385 58.8196C105.09 59.2339 104.692 59.5372 104.191 59.7294C103.694 59.925 103.141 60.0227 102.531 60.0227ZM102.491 55.8267C102.962 55.8267 103.36 55.719 103.684 55.5036C104.009 55.2881 104.256 54.9782 104.425 54.5739C104.594 54.1695 104.679 53.6856 104.679 53.1222C104.679 52.572 104.596 52.0864 104.43 51.6655C104.264 51.2446 104.019 50.9148 103.694 50.6761C103.369 50.4375 102.968 50.3182 102.491 50.3182C101.994 50.3182 101.58 50.4441 101.248 50.696C100.92 50.9479 100.673 51.286 100.507 51.7102C100.345 52.1345 100.264 52.6051 100.264 53.1222C100.264 53.6525 100.347 54.1214 100.512 54.5291C100.682 54.9335 100.93 55.2517 101.258 55.4837C101.59 55.7124 102.001 55.8267 102.491 55.8267ZM111.042 57.1591C110.306 57.1591 109.671 56.9967 109.137 56.6719C108.607 56.3438 108.198 55.8864 107.909 55.2997C107.624 54.7098 107.482 54.0237 107.482 53.2415C107.482 52.4593 107.624 51.7699 107.909 51.1733C108.198 50.5734 108.599 50.1061 109.113 49.7713C109.63 49.4332 110.233 49.2642 110.922 49.2642C111.32 49.2642 111.713 49.3305 112.1 49.4631C112.488 49.5956 112.841 49.8111 113.159 50.1094C113.478 50.4044 113.731 50.7955 113.92 51.2827C114.109 51.7699 114.203 52.3698 114.203 53.0824V53.5795H108.317V52.5653H113.01C113.01 52.1345 112.924 51.75 112.752 51.4119C112.583 51.0739 112.341 50.8071 112.026 50.6115C111.714 50.416 111.346 50.3182 110.922 50.3182C110.455 50.3182 110.051 50.4342 109.709 50.6662C109.371 50.8949 109.111 51.1932 108.929 51.5611C108.746 51.929 108.655 52.3234 108.655 52.7443V53.4205C108.655 53.9972 108.755 54.486 108.953 54.8871C109.156 55.2848 109.436 55.5881 109.794 55.7969C110.152 56.0024 110.568 56.1051 111.042 56.1051C111.35 56.1051 111.628 56.062 111.877 55.9759C112.129 55.8864 112.346 55.7538 112.528 55.5781C112.71 55.3991 112.851 55.1771 112.951 54.9119L114.084 55.2301C113.965 55.6146 113.764 55.9527 113.483 56.2443C113.201 56.5327 112.853 56.758 112.439 56.9205C112.024 57.0795 111.559 57.1591 111.042 57.1591ZM121.257 51.0739L120.203 51.3722C120.137 51.1965 120.039 51.0258 119.91 50.8601C119.784 50.6911 119.612 50.5518 119.393 50.4425C119.174 50.3331 118.894 50.2784 118.553 50.2784C118.085 50.2784 117.696 50.3861 117.384 50.6016C117.076 50.8137 116.922 51.0838 116.922 51.4119C116.922 51.7036 117.028 51.9339 117.24 52.103C117.452 52.272 117.784 52.4129 118.235 52.5256L119.368 52.804C120.051 52.9697 120.56 53.2232 120.894 53.5646C121.229 53.9027 121.397 54.3385 121.397 54.8722C121.397 55.3097 121.271 55.7008 121.019 56.0455C120.77 56.3902 120.422 56.6619 119.975 56.8608C119.527 57.0597 119.007 57.1591 118.414 57.1591C117.635 57.1591 116.99 56.9901 116.48 56.652C115.969 56.3139 115.646 55.8201 115.51 55.1705L116.624 54.892C116.73 55.303 116.93 55.6113 117.225 55.8168C117.524 56.0223 117.913 56.125 118.394 56.125C118.941 56.125 119.375 56.009 119.696 55.777C120.021 55.5417 120.183 55.2599 120.183 54.9318C120.183 54.6667 120.091 54.4446 119.905 54.2656C119.719 54.0833 119.434 53.9474 119.05 53.858L117.777 53.5597C117.078 53.3939 116.564 53.1371 116.236 52.7891C115.911 52.4377 115.749 51.9986 115.749 51.4716C115.749 51.0407 115.87 50.6596 116.112 50.3281C116.357 49.9967 116.69 49.7365 117.111 49.5476C117.535 49.3587 118.016 49.2642 118.553 49.2642C119.308 49.2642 119.902 49.4299 120.333 49.7614C120.767 50.0928 121.075 50.5303 121.257 51.0739ZM124.554 54.1364V54.0767C124.561 53.4437 124.627 52.9399 124.753 52.5653C124.879 52.1908 125.058 51.8875 125.29 51.6555C125.522 51.4235 125.8 51.2098 126.125 51.0142C126.321 50.8949 126.496 50.754 126.652 50.5916C126.808 50.4259 126.93 50.2353 127.02 50.0199C127.113 49.8045 127.159 49.5658 127.159 49.304C127.159 48.9792 127.083 48.6974 126.93 48.4588C126.778 48.2202 126.574 48.0362 126.319 47.907C126.064 47.7777 125.78 47.7131 125.469 47.7131C125.197 47.7131 124.935 47.7694 124.683 47.8821C124.431 47.9948 124.221 48.1721 124.052 48.4141C123.883 48.656 123.785 48.9725 123.758 49.3636H122.506C122.532 48.8002 122.678 48.3179 122.943 47.9169C123.212 47.5159 123.565 47.2093 124.002 46.9972C124.443 46.785 124.932 46.679 125.469 46.679C126.052 46.679 126.559 46.795 126.99 47.027C127.424 47.259 127.759 47.5772 127.994 47.9815C128.233 48.3859 128.352 48.8466 128.352 49.3636C128.352 49.7282 128.296 50.058 128.183 50.353C128.074 50.648 127.915 50.9115 127.706 51.1435C127.5 51.3755 127.252 51.581 126.96 51.7599C126.669 51.9422 126.435 52.1345 126.259 52.3366C126.084 52.5355 125.956 52.7725 125.876 53.0476C125.797 53.3227 125.754 53.6657 125.747 54.0767V54.1364H124.554ZM125.19 57.0795C124.945 57.0795 124.735 56.9917 124.559 56.8161C124.383 56.6404 124.295 56.4299 124.295 56.1847C124.295 55.9394 124.383 55.7289 124.559 55.5533C124.735 55.3776 124.945 55.2898 125.19 55.2898C125.436 55.2898 125.646 55.3776 125.822 55.5533C125.997 55.7289 126.085 55.9394 126.085 56.1847C126.085 56.3471 126.044 56.4962 125.961 56.6321C125.881 56.768 125.774 56.8774 125.638 56.9602C125.505 57.0398 125.356 57.0795 125.19 57.0795ZM133.06 46.8182H134.472L137.296 51.571H137.415L140.239 46.8182H141.651L137.972 52.804V57H136.739V52.804L133.06 46.8182ZM144.969 57.1591C144.279 57.1591 143.674 56.995 143.154 56.6669C142.637 56.3388 142.233 55.8797 141.941 55.2898C141.653 54.6998 141.508 54.0104 141.508 53.2216C141.508 52.4261 141.653 51.7318 141.941 51.1385C142.233 50.5452 142.637 50.0845 143.154 49.7564C143.674 49.4283 144.279 49.2642 144.969 49.2642C145.658 49.2642 146.261 49.4283 146.778 49.7564C147.299 50.0845 147.703 50.5452 147.991 51.1385C148.283 51.7318 148.429 52.4261 148.429 53.2216C148.429 54.0104 148.283 54.6998 147.991 55.2898C147.703 55.8797 147.299 56.3388 146.778 56.6669C146.261 56.995 145.658 57.1591 144.969 57.1591ZM144.969 56.1051C145.492 56.1051 145.923 55.9709 146.261 55.7024C146.599 55.4339 146.85 55.081 147.012 54.6435C147.174 54.206 147.256 53.732 147.256 53.2216C147.256 52.7112 147.174 52.2356 147.012 51.7947C146.85 51.3539 146.599 50.9976 146.261 50.7259C145.923 50.4541 145.492 50.3182 144.969 50.3182C144.445 50.3182 144.014 50.4541 143.676 50.7259C143.338 50.9976 143.088 51.3539 142.925 51.7947C142.763 52.2356 142.682 52.7112 142.682 53.2216C142.682 53.732 142.763 54.206 142.925 54.6435C143.088 55.081 143.338 55.4339 143.676 55.7024C144.014 55.9709 144.445 56.1051 144.969 56.1051ZM154.892 53.8778V49.3636H156.066V57H154.892V55.7074H154.813C154.634 56.0952 154.355 56.425 153.978 56.6967C153.6 56.9652 153.122 57.0994 152.546 57.0994C152.069 57.0994 151.644 56.995 151.273 56.7862C150.902 56.5741 150.61 56.2559 150.398 55.8317C150.186 55.4041 150.08 54.8655 150.08 54.2159V49.3636H151.253V54.1364C151.253 54.6932 151.409 55.1373 151.721 55.4688C152.035 55.8002 152.436 55.9659 152.924 55.9659C153.215 55.9659 153.512 55.8913 153.814 55.7422C154.118 55.593 154.374 55.3643 154.579 55.0561C154.788 54.7479 154.892 54.3551 154.892 53.8778ZM158.075 57V49.3636H159.208V50.517H159.288C159.427 50.1392 159.679 49.8326 160.043 49.5973C160.408 49.362 160.819 49.2443 161.276 49.2443C161.363 49.2443 161.47 49.246 161.599 49.2493C161.729 49.2526 161.827 49.2576 161.893 49.2642V50.4574C161.853 50.4474 161.762 50.4325 161.619 50.4126C161.48 50.3894 161.333 50.3778 161.177 50.3778C160.806 50.3778 160.474 50.4557 160.183 50.6115C159.894 50.764 159.666 50.9761 159.497 51.2479C159.331 51.5163 159.248 51.8229 159.248 52.1676V57H158.075ZM171.754 53.8778V49.3636H172.927V57H171.754V55.7074H171.674C171.495 56.0952 171.217 56.425 170.839 56.6967C170.461 56.9652 169.984 57.0994 169.407 57.0994C168.93 57.0994 168.506 56.995 168.134 56.7862C167.763 56.5741 167.471 56.2559 167.259 55.8317C167.047 55.4041 166.941 54.8655 166.941 54.2159V49.3636H168.114V54.1364C168.114 54.6932 168.27 55.1373 168.582 55.4688C168.897 55.8002 169.298 55.9659 169.785 55.9659C170.077 55.9659 170.373 55.8913 170.675 55.7422C170.98 55.593 171.235 55.3643 171.44 55.0561C171.649 54.7479 171.754 54.3551 171.754 53.8778ZM174.936 59.8636V49.3636H176.069V50.5767H176.209C176.295 50.4441 176.414 50.2751 176.567 50.0696C176.722 49.8608 176.944 49.6752 177.233 49.5128C177.524 49.3471 177.919 49.2642 178.416 49.2642C179.059 49.2642 179.626 49.425 180.116 49.7464C180.607 50.0679 180.99 50.5237 181.265 51.1136C181.54 51.7036 181.677 52.3996 181.677 53.2017C181.677 54.0104 181.54 54.7114 181.265 55.3047C180.99 55.8946 180.608 56.352 180.121 56.6768C179.634 56.9983 179.072 57.1591 178.436 57.1591C177.945 57.1591 177.553 57.0779 177.258 56.9155C176.963 56.7498 176.736 56.5625 176.577 56.3537C176.417 56.1416 176.295 55.9659 176.209 55.8267H176.109V59.8636H174.936ZM176.089 53.1818C176.089 53.7585 176.174 54.2673 176.343 54.7081C176.512 55.1456 176.759 55.4886 177.084 55.7372C177.408 55.9825 177.806 56.1051 178.277 56.1051C178.767 56.1051 179.177 55.9759 179.505 55.7173C179.836 55.4555 180.085 55.1042 180.251 54.6634C180.42 54.2192 180.504 53.7254 180.504 53.1818C180.504 52.6449 180.421 52.161 180.255 51.7301C180.093 51.2959 179.846 50.9529 179.515 50.701C179.187 50.4458 178.774 50.3182 178.277 50.3182C177.8 50.3182 177.398 50.4392 177.074 50.6811C176.749 50.9197 176.504 51.2545 176.338 51.6854C176.172 52.1129 176.089 52.6117 176.089 53.1818ZM186.211 57.1591C185.574 57.1591 185.013 56.9983 184.525 56.6768C184.038 56.352 183.657 55.8946 183.382 55.3047C183.107 54.7114 182.969 54.0104 182.969 53.2017C182.969 52.3996 183.107 51.7036 183.382 51.1136C183.657 50.5237 184.04 50.0679 184.53 49.7464C185.021 49.425 185.588 49.2642 186.231 49.2642C186.728 49.2642 187.12 49.3471 187.409 49.5128C187.7 49.6752 187.923 49.8608 188.075 50.0696C188.231 50.2751 188.352 50.4441 188.438 50.5767H188.537V46.8182H189.711V57H188.577V55.8267H188.438C188.352 55.9659 188.229 56.1416 188.07 56.3537C187.911 56.5625 187.684 56.7498 187.389 56.9155C187.094 57.0779 186.701 57.1591 186.211 57.1591ZM186.37 56.1051C186.84 56.1051 187.238 55.9825 187.563 55.7372C187.888 55.4886 188.135 55.1456 188.304 54.7081C188.473 54.2673 188.557 53.7585 188.557 53.1818C188.557 52.6117 188.474 52.1129 188.309 51.6854C188.143 51.2545 187.898 50.9197 187.573 50.6811C187.248 50.4392 186.847 50.3182 186.37 50.3182C185.873 50.3182 185.458 50.4458 185.127 50.701C184.799 50.9529 184.552 51.2959 184.386 51.7301C184.224 52.161 184.142 52.6449 184.142 53.1818C184.142 53.7254 184.225 54.2192 184.391 54.6634C184.56 55.1042 184.809 55.4555 185.137 55.7173C185.468 55.9759 185.879 56.1051 186.37 56.1051ZM194.13 57.179C193.646 57.179 193.207 57.0878 192.812 56.9055C192.418 56.7199 192.105 56.4531 191.873 56.1051C191.641 55.7538 191.525 55.3295 191.525 54.8324C191.525 54.3949 191.611 54.0402 191.783 53.7685C191.955 53.4934 192.186 53.2779 192.474 53.1222C192.762 52.9664 193.081 52.8504 193.429 52.7741C193.78 52.6946 194.133 52.6316 194.488 52.5852C194.952 52.5256 195.328 52.4808 195.616 52.451C195.908 52.4179 196.12 52.3632 196.252 52.2869C196.388 52.2107 196.456 52.0781 196.456 51.8892V51.8494C196.456 51.3589 196.322 50.9777 196.054 50.706C195.788 50.4342 195.386 50.2983 194.846 50.2983C194.285 50.2983 193.846 50.4209 193.528 50.6662C193.21 50.9115 192.986 51.1733 192.857 51.4517L191.743 51.054C191.942 50.59 192.207 50.2287 192.539 49.9702C192.873 49.7083 193.238 49.526 193.632 49.4233C194.03 49.3172 194.421 49.2642 194.806 49.2642C195.051 49.2642 195.333 49.294 195.651 49.3537C195.972 49.41 196.282 49.5277 196.581 49.7067C196.882 49.8857 197.132 50.1558 197.331 50.517C197.53 50.8783 197.63 51.3622 197.63 51.9688V57H196.456V55.9659H196.397C196.317 56.1316 196.185 56.3089 195.999 56.4979C195.813 56.6868 195.566 56.8475 195.258 56.9801C194.95 57.1127 194.574 57.179 194.13 57.179ZM194.309 56.125C194.773 56.125 195.164 56.0339 195.482 55.8516C195.803 55.6693 196.045 55.4339 196.208 55.1456C196.373 54.8572 196.456 54.554 196.456 54.2358V53.1619C196.407 53.2216 196.297 53.2763 196.128 53.326C195.962 53.3724 195.77 53.4138 195.551 53.4503C195.336 53.4834 195.126 53.5133 194.92 53.5398C194.718 53.563 194.554 53.5829 194.428 53.5994C194.123 53.6392 193.838 53.7038 193.573 53.7933C193.311 53.8795 193.099 54.0104 192.936 54.1861C192.777 54.3584 192.698 54.5937 192.698 54.892C192.698 55.2997 192.849 55.608 193.15 55.8168C193.455 56.0223 193.841 56.125 194.309 56.125ZM202.952 49.3636V50.358H198.995V49.3636H202.952ZM200.148 47.5341H201.321V54.8125C201.321 55.1439 201.37 55.3925 201.466 55.5582C201.565 55.7206 201.691 55.83 201.843 55.8864C201.999 55.9394 202.163 55.9659 202.336 55.9659C202.465 55.9659 202.571 55.9593 202.654 55.946C202.737 55.9295 202.803 55.9162 202.853 55.9062L203.091 56.9602C203.012 56.9901 202.901 57.0199 202.758 57.0497C202.616 57.0829 202.435 57.0994 202.216 57.0994C201.885 57.0994 201.56 57.0282 201.242 56.8857C200.927 56.7431 200.665 56.526 200.456 56.2344C200.251 55.9427 200.148 55.5748 200.148 55.1307V47.5341ZM207.697 57.1591C206.961 57.1591 206.326 56.9967 205.793 56.6719C205.262 56.3438 204.853 55.8864 204.565 55.2997C204.28 54.7098 204.137 54.0237 204.137 53.2415C204.137 52.4593 204.28 51.7699 204.565 51.1733C204.853 50.5734 205.254 50.1061 205.768 49.7713C206.285 49.4332 206.888 49.2642 207.577 49.2642C207.975 49.2642 208.368 49.3305 208.756 49.4631C209.143 49.5956 209.496 49.8111 209.815 50.1094C210.133 50.4044 210.386 50.7955 210.575 51.2827C210.764 51.7699 210.859 52.3698 210.859 53.0824V53.5795H204.972V52.5653H209.665C209.665 52.1345 209.579 51.75 209.407 51.4119C209.238 51.0739 208.996 50.8071 208.681 50.6115C208.37 50.416 208.002 50.3182 207.577 50.3182C207.11 50.3182 206.706 50.4342 206.364 50.6662C206.026 50.8949 205.766 51.1932 205.584 51.5611C205.402 51.929 205.31 52.3234 205.31 52.7443V53.4205C205.31 53.9972 205.41 54.486 205.609 54.8871C205.811 55.2848 206.091 55.5881 206.449 55.7969C206.807 56.0024 207.223 56.1051 207.697 56.1051C208.005 56.1051 208.283 56.062 208.532 55.9759C208.784 55.8864 209.001 55.7538 209.183 55.5781C209.366 55.3991 209.506 55.1771 209.606 54.9119L210.739 55.2301C210.62 55.6146 210.42 55.9527 210.138 56.2443C209.856 56.5327 209.508 56.758 209.094 56.9205C208.679 57.0795 208.214 57.1591 207.697 57.1591ZM217.913 51.0739L216.859 51.3722C216.792 51.1965 216.695 51.0258 216.565 50.8601C216.439 50.6911 216.267 50.5518 216.048 50.4425C215.829 50.3331 215.549 50.2784 215.208 50.2784C214.741 50.2784 214.351 50.3861 214.04 50.6016C213.731 50.8137 213.577 51.0838 213.577 51.4119C213.577 51.7036 213.683 51.9339 213.896 52.103C214.108 52.272 214.439 52.4129 214.89 52.5256L216.023 52.804C216.706 52.9697 217.215 53.2232 217.55 53.5646C217.884 53.9027 218.052 54.3385 218.052 54.8722C218.052 55.3097 217.926 55.7008 217.674 56.0455C217.425 56.3902 217.077 56.6619 216.63 56.8608C216.182 57.0597 215.662 57.1591 215.069 57.1591C214.29 57.1591 213.645 56.9901 213.135 56.652C212.624 56.3139 212.301 55.8201 212.165 55.1705L213.279 54.892C213.385 55.303 213.586 55.6113 213.881 55.8168C214.179 56.0223 214.568 56.125 215.049 56.125C215.596 56.125 216.03 56.009 216.351 55.777C216.676 55.5417 216.839 55.2599 216.839 54.9318C216.839 54.6667 216.746 54.4446 216.56 54.2656C216.375 54.0833 216.09 53.9474 215.705 53.858L214.432 53.5597C213.733 53.3939 213.219 53.1371 212.891 52.7891C212.566 52.4377 212.404 51.9986 212.404 51.4716C212.404 51.0407 212.525 50.6596 212.767 50.3281C213.012 49.9967 213.345 49.7365 213.766 49.5476C214.191 49.3587 214.671 49.2642 215.208 49.2642C215.964 49.2642 216.557 49.4299 216.988 49.7614C217.422 50.0928 217.73 50.5303 217.913 51.0739ZM225.206 57L222.879 49.3636H224.112L225.762 55.2102H225.842L227.473 49.3636H228.725L230.336 55.1903H230.416L232.066 49.3636H233.299L230.973 57H229.819L228.149 51.1335H228.029L226.359 57H225.206ZM234.71 57V49.3636H235.884V57H234.71ZM235.307 48.0909C235.078 48.0909 234.881 48.013 234.715 47.8572C234.553 47.7015 234.472 47.5142 234.472 47.2955C234.472 47.0767 234.553 46.8894 234.715 46.7337C234.881 46.5779 235.078 46.5 235.307 46.5C235.536 46.5 235.731 46.5779 235.894 46.7337C236.059 46.8894 236.142 47.0767 236.142 47.2955C236.142 47.5142 236.059 47.7015 235.894 47.8572C235.731 48.013 235.536 48.0909 235.307 48.0909ZM239.066 46.8182V57H237.893V46.8182H239.066ZM242.248 46.8182V57H241.075V46.8182H242.248ZM251.137 60.0227C250.57 60.0227 250.083 59.9498 249.675 59.804C249.268 59.6615 248.928 59.4725 248.656 59.2372C248.388 59.0052 248.174 58.7566 248.015 58.4915L248.95 57.8352C249.056 57.9744 249.19 58.1335 249.352 58.3125C249.515 58.4948 249.737 58.6522 250.019 58.7848C250.304 58.9207 250.676 58.9886 251.137 58.9886C251.754 58.9886 252.262 58.8395 252.663 58.5412C253.064 58.2429 253.265 57.7756 253.265 57.1392V55.5881H253.166C253.079 55.7273 252.957 55.8996 252.798 56.1051C252.642 56.3073 252.416 56.4879 252.121 56.647C251.83 56.8028 251.435 56.8807 250.938 56.8807C250.322 56.8807 249.768 56.7348 249.278 56.4432C248.791 56.1515 248.404 55.7273 248.119 55.1705C247.838 54.6136 247.697 53.9375 247.697 53.142C247.697 52.3598 247.834 51.6787 248.109 51.0987C248.385 50.5154 248.767 50.0646 249.258 49.7464C249.748 49.425 250.315 49.2642 250.958 49.2642C251.455 49.2642 251.85 49.3471 252.141 49.5128C252.436 49.6752 252.662 49.8608 252.818 50.0696C252.977 50.2751 253.099 50.4441 253.185 50.5767H253.305V49.3636H254.438V57.2188C254.438 57.875 254.289 58.4086 253.991 58.8196C253.696 59.2339 253.298 59.5372 252.798 59.7294C252.3 59.925 251.747 60.0227 251.137 60.0227ZM251.097 55.8267C251.568 55.8267 251.966 55.719 252.291 55.5036C252.615 55.2881 252.862 54.9782 253.031 54.5739C253.2 54.1695 253.285 53.6856 253.285 53.1222C253.285 52.572 253.202 52.0864 253.036 51.6655C252.871 51.2446 252.625 50.9148 252.3 50.6761C251.976 50.4375 251.575 50.3182 251.097 50.3182C250.6 50.3182 250.186 50.4441 249.854 50.696C249.526 50.9479 249.279 51.286 249.114 51.7102C248.951 52.1345 248.87 52.6051 248.87 53.1222C248.87 53.6525 248.953 54.1214 249.119 54.5291C249.288 54.9335 249.536 55.2517 249.864 55.4837C250.196 55.7124 250.607 55.8267 251.097 55.8267ZM259.548 57.1591C258.859 57.1591 258.254 56.995 257.734 56.6669C257.217 56.3388 256.812 55.8797 256.521 55.2898C256.232 54.6998 256.088 54.0104 256.088 53.2216C256.088 52.4261 256.232 51.7318 256.521 51.1385C256.812 50.5452 257.217 50.0845 257.734 49.7564C258.254 49.4283 258.859 49.2642 259.548 49.2642C260.238 49.2642 260.841 49.4283 261.358 49.7564C261.878 50.0845 262.283 50.5452 262.571 51.1385C262.863 51.7318 263.008 52.4261 263.008 53.2216C263.008 54.0104 262.863 54.6998 262.571 55.2898C262.283 55.8797 261.878 56.3388 261.358 56.6669C260.841 56.995 260.238 57.1591 259.548 57.1591ZM259.548 56.1051C260.072 56.1051 260.503 55.9709 260.841 55.7024C261.179 55.4339 261.429 55.081 261.592 54.6435C261.754 54.206 261.835 53.732 261.835 53.2216C261.835 52.7112 261.754 52.2356 261.592 51.7947C261.429 51.3539 261.179 50.9976 260.841 50.7259C260.503 50.4541 260.072 50.3182 259.548 50.3182C259.025 50.3182 258.594 50.4541 258.256 50.7259C257.918 50.9976 257.667 51.3539 257.505 51.7947C257.343 52.2356 257.261 52.7112 257.261 53.2216C257.261 53.732 257.343 54.206 257.505 54.6435C257.667 55.081 257.918 55.4339 258.256 55.7024C258.594 55.9709 259.025 56.1051 259.548 56.1051ZM269.63 46.8182V57H268.457V46.8182H269.63ZM271.639 57V49.3636H272.813V57H271.639ZM272.236 48.0909C272.007 48.0909 271.81 48.013 271.644 47.8572C271.482 47.7015 271.401 47.5142 271.401 47.2955C271.401 47.0767 271.482 46.8894 271.644 46.7337C271.81 46.5779 272.007 46.5 272.236 46.5C272.465 46.5 272.66 46.5779 272.822 46.7337C272.988 46.8894 273.071 47.0767 273.071 47.2955C273.071 47.5142 272.988 47.7015 272.822 47.8572C272.66 48.013 272.465 48.0909 272.236 48.0909ZM281.066 49.3636L278.242 57H277.049L274.225 49.3636H275.498L277.606 55.4489H277.685L279.793 49.3636H281.066ZM285.403 57.1591C284.667 57.1591 284.032 56.9967 283.499 56.6719C282.968 56.3438 282.559 55.8864 282.271 55.2997C281.986 54.7098 281.843 54.0237 281.843 53.2415C281.843 52.4593 281.986 51.7699 282.271 51.1733C282.559 50.5734 282.96 50.1061 283.474 49.7713C283.991 49.4332 284.594 49.2642 285.283 49.2642C285.681 49.2642 286.074 49.3305 286.462 49.4631C286.849 49.5956 287.202 49.8111 287.521 50.1094C287.839 50.4044 288.092 50.7955 288.281 51.2827C288.47 51.7699 288.565 52.3698 288.565 53.0824V53.5795H282.678V52.5653H287.372C287.372 52.1345 287.285 51.75 287.113 51.4119C286.944 51.0739 286.702 50.8071 286.387 50.6115C286.076 50.416 285.708 50.3182 285.283 50.3182C284.816 50.3182 284.412 50.4342 284.07 50.6662C283.732 50.8949 283.472 51.1932 283.29 51.5611C283.108 51.929 283.016 52.3234 283.016 52.7443V53.4205C283.016 53.9972 283.116 54.486 283.315 54.8871C283.517 55.2848 283.797 55.5881 284.155 55.7969C284.513 56.0024 284.929 56.1051 285.403 56.1051C285.711 56.1051 285.989 56.062 286.238 55.9759C286.49 55.8864 286.707 55.7538 286.889 55.5781C287.072 55.3991 287.212 55.1771 287.312 54.9119L288.445 55.2301C288.326 55.6146 288.126 55.9527 287.844 56.2443C287.562 56.5327 287.214 56.758 286.8 56.9205C286.385 57.0795 285.92 57.1591 285.403 57.1591ZM17.0739 77V69.3636H18.2472V77H17.0739ZM17.6705 68.0909C17.4418 68.0909 17.2446 68.013 17.0788 67.8572C16.9164 67.7015 16.8352 67.5142 16.8352 67.2955C16.8352 67.0767 16.9164 66.8894 17.0788 66.7337C17.2446 66.5779 17.4418 66.5 17.6705 66.5C17.8991 66.5 18.0947 66.5779 18.2571 66.7337C18.4228 66.8894 18.5057 67.0767 18.5057 67.2955C18.5057 67.5142 18.4228 67.7015 18.2571 67.8572C18.0947 68.013 17.8991 68.0909 17.6705 68.0909ZM20.2561 77V69.3636H21.3897V70.5568H21.4891C21.6482 70.1491 21.905 69.8326 22.2597 69.6072C22.6143 69.3786 23.0402 69.2642 23.5374 69.2642C24.0412 69.2642 24.4604 69.3786 24.7952 69.6072C25.1333 69.8326 25.3968 70.1491 25.5857 70.5568H25.6652C25.8608 70.1624 26.1541 69.8492 26.5452 69.6172C26.9363 69.3819 27.4053 69.2642 27.9522 69.2642C28.6349 69.2642 29.1934 69.478 29.6276 69.9055C30.0618 70.3298 30.2789 70.991 30.2789 71.8892V77H29.1056V71.8892C29.1056 71.3258 28.9514 70.9231 28.6432 70.6811C28.335 70.4392 27.972 70.3182 27.5544 70.3182C27.0175 70.3182 26.6015 70.4806 26.3066 70.8054C26.0116 71.1269 25.8641 71.5346 25.8641 72.0284V77H24.6709V71.7699C24.6709 71.3357 24.53 70.986 24.2483 70.7209C23.9666 70.4524 23.6037 70.3182 23.1595 70.3182C22.8546 70.3182 22.5696 70.3994 22.3044 70.5618C22.0426 70.7242 21.8305 70.9496 21.6681 71.2379C21.509 71.523 21.4294 71.8527 21.4294 72.2273V77H20.2561ZM32.2841 77V69.3636H33.4176V70.5568H33.5171C33.6761 70.1491 33.933 69.8326 34.2876 69.6072C34.6423 69.3786 35.0682 69.2642 35.5653 69.2642C36.0691 69.2642 36.4884 69.3786 36.8232 69.6072C37.1612 69.8326 37.4247 70.1491 37.6136 70.5568H37.6932C37.8887 70.1624 38.1821 69.8492 38.5732 69.6172C38.9643 69.3819 39.4332 69.2642 39.9801 69.2642C40.6629 69.2642 41.2214 69.478 41.6555 69.9055C42.0897 70.3298 42.3068 70.991 42.3068 71.8892V77H41.1335V71.8892C41.1335 71.3258 40.9794 70.9231 40.6712 70.6811C40.3629 70.4392 40 70.3182 39.5824 70.3182C39.0455 70.3182 38.6295 70.4806 38.3345 70.8054C38.0395 71.1269 37.8921 71.5346 37.8921 72.0284V77H36.6989V71.7699C36.6989 71.3357 36.558 70.986 36.2763 70.7209C35.9946 70.4524 35.6316 70.3182 35.1875 70.3182C34.8826 70.3182 34.5975 70.3994 34.3324 70.5618C34.0706 70.7242 33.8584 70.9496 33.696 71.2379C33.5369 71.523 33.4574 71.8527 33.4574 72.2273V77H32.2841ZM47.5138 77.1591C46.778 77.1591 46.1433 76.9967 45.6097 76.6719C45.0793 76.3438 44.67 75.8864 44.3817 75.2997C44.0966 74.7098 43.9541 74.0237 43.9541 73.2415C43.9541 72.4593 44.0966 71.7699 44.3817 71.1733C44.67 70.5734 45.0711 70.1061 45.5848 69.7713C46.1018 69.4332 46.7051 69.2642 47.3945 69.2642C47.7922 69.2642 48.1849 69.3305 48.5727 69.4631C48.9605 69.5956 49.3135 69.8111 49.6317 70.1094C49.9499 70.4044 50.2034 70.7955 50.3923 71.2827C50.5812 71.7699 50.6757 72.3698 50.6757 73.0824V73.5795H44.7893V72.5653H49.4825C49.4825 72.1345 49.3963 71.75 49.224 71.4119C49.055 71.0739 48.813 70.8071 48.4981 70.6115C48.1866 70.416 47.8187 70.3182 47.3945 70.3182C46.9271 70.3182 46.5228 70.4342 46.1814 70.6662C45.8433 70.8949 45.5831 71.1932 45.4008 71.5611C45.2186 71.929 45.1274 72.3234 45.1274 72.7443V73.4205C45.1274 73.9972 45.2268 74.486 45.4257 74.8871C45.6279 75.2848 45.9079 75.5881 46.2659 75.7969C46.6239 76.0024 47.0398 76.1051 47.5138 76.1051C47.822 76.1051 48.1004 76.062 48.349 75.9759C48.6009 75.8864 48.818 75.7538 49.0003 75.5781C49.1826 75.3991 49.3234 75.1771 49.4229 74.9119L50.5564 75.2301C50.4371 75.6146 50.2365 75.9527 49.9548 76.2443C49.6731 76.5327 49.3251 76.758 48.9108 76.9205C48.4965 77.0795 48.0308 77.1591 47.5138 77.1591ZM55.204 77.1591C54.5677 77.1591 54.0059 76.9983 53.5187 76.6768C53.0314 76.352 52.6503 75.8946 52.3752 75.3047C52.1001 74.7114 51.9625 74.0104 51.9625 73.2017C51.9625 72.3996 52.1001 71.7036 52.3752 71.1136C52.6503 70.5237 53.0331 70.0679 53.5236 69.7464C54.0142 69.425 54.5809 69.2642 55.2239 69.2642C55.7211 69.2642 56.1138 69.3471 56.4022 69.5128C56.6938 69.6752 56.9159 69.8608 57.0684 70.0696C57.2241 70.2751 57.3451 70.4441 57.4313 70.5767H57.5307V66.8182H58.704V77H57.5705V75.8267H57.4313C57.3451 75.9659 57.2225 76.1416 57.0634 76.3537C56.9043 76.5625 56.6773 76.7498 56.3823 76.9155C56.0873 77.0779 55.6946 77.1591 55.204 77.1591ZM55.3631 76.1051C55.8338 76.1051 56.2315 75.9825 56.5563 75.7372C56.8811 75.4886 57.128 75.1456 57.2971 74.7081C57.4661 74.2673 57.5506 73.7585 57.5506 73.1818C57.5506 72.6117 57.4678 72.1129 57.302 71.6854C57.1363 71.2545 56.8911 70.9197 56.5662 70.6811C56.2414 70.4392 55.8404 70.3182 55.3631 70.3182C54.866 70.3182 54.4517 70.4458 54.1202 70.701C53.7921 70.9529 53.5452 71.2959 53.3795 71.7301C53.217 72.161 53.1358 72.6449 53.1358 73.1818C53.1358 73.7254 53.2187 74.2192 53.3844 74.6634C53.5535 75.1042 53.802 75.4555 54.1302 75.7173C54.4616 75.9759 54.8726 76.1051 55.3631 76.1051ZM60.8758 77V69.3636H62.0491V77H60.8758ZM61.4724 68.0909C61.2437 68.0909 61.0465 68.013 60.8808 67.8572C60.7184 67.7015 60.6372 67.5142 60.6372 67.2955C60.6372 67.0767 60.7184 66.8894 60.8808 66.7337C61.0465 66.5779 61.2437 66.5 61.4724 66.5C61.7011 66.5 61.8966 66.5779 62.0591 66.7337C62.2248 66.8894 62.3076 67.0767 62.3076 67.2955C62.3076 67.5142 62.2248 67.7015 62.0591 67.8572C61.8966 68.013 61.7011 68.0909 61.4724 68.0909ZM66.3052 77.179C65.8213 77.179 65.3822 77.0878 64.9878 76.9055C64.5934 76.7199 64.2801 76.4531 64.0481 76.1051C63.8161 75.7538 63.7001 75.3295 63.7001 74.8324C63.7001 74.3949 63.7863 74.0402 63.9587 73.7685C64.131 73.4934 64.3613 73.2779 64.6497 73.1222C64.9381 72.9664 65.2562 72.8504 65.6042 72.7741C65.9556 72.6946 66.3086 72.6316 66.6632 72.5852C67.1272 72.5256 67.5034 72.4808 67.7917 72.451C68.0834 72.4179 68.2955 72.3632 68.4281 72.2869C68.564 72.2107 68.6319 72.0781 68.6319 71.8892V71.8494C68.6319 71.3589 68.4977 70.9777 68.2292 70.706C67.9641 70.4342 67.5614 70.2983 67.0212 70.2983C66.461 70.2983 66.0219 70.4209 65.7037 70.6662C65.3855 70.9115 65.1618 71.1733 65.0325 71.4517L63.9189 71.054C64.1177 70.59 64.3829 70.2287 64.7143 69.9702C65.0491 69.7083 65.4137 69.526 65.8081 69.4233C66.2058 69.3172 66.5969 69.2642 66.9814 69.2642C67.2266 69.2642 67.5084 69.294 67.8265 69.3537C68.148 69.41 68.4579 69.5277 68.7562 69.7067C69.0578 69.8857 69.3081 70.1558 69.5069 70.517C69.7058 70.8783 69.8052 71.3622 69.8052 71.9688V77H68.6319V75.9659H68.5723C68.4927 76.1316 68.3602 76.3089 68.1746 76.4979C67.989 76.6868 67.742 76.8475 67.4338 76.9801C67.1256 77.1127 66.7494 77.179 66.3052 77.179ZM66.4842 76.125C66.9482 76.125 67.3393 76.0339 67.6575 75.8516C67.979 75.6693 68.221 75.4339 68.3834 75.1456C68.5491 74.8572 68.6319 74.554 68.6319 74.2358V73.1619C68.5822 73.2216 68.4729 73.2763 68.3038 73.326C68.1381 73.3724 67.9459 73.4138 67.7271 73.4503C67.5117 73.4834 67.3012 73.5133 67.0957 73.5398C66.8935 73.563 66.7295 73.5829 66.6035 73.5994C66.2986 73.6392 66.0136 73.7038 65.7484 73.7933C65.4866 73.8795 65.2745 74.0104 65.1121 74.1861C64.953 74.3584 64.8734 74.5937 64.8734 74.892C64.8734 75.2997 65.0242 75.608 65.3258 75.8168C65.6308 76.0223 66.0169 76.125 66.4842 76.125ZM75.1278 69.3636V70.358H71.1704V69.3636H75.1278ZM72.3238 67.5341H73.4971V74.8125C73.4971 75.1439 73.5452 75.3925 73.6413 75.5582C73.7407 75.7206 73.8667 75.83 74.0191 75.8864C74.1749 75.9394 74.339 75.9659 74.5113 75.9659C74.6406 75.9659 74.7466 75.9593 74.8295 75.946C74.9123 75.9295 74.9786 75.9162 75.0283 75.9062L75.267 76.9602C75.1874 76.9901 75.0764 77.0199 74.9339 77.0497C74.7914 77.0829 74.6107 77.0994 74.392 77.0994C74.0605 77.0994 73.7357 77.0282 73.4176 76.8857C73.1027 76.7431 72.8408 76.526 72.632 76.2344C72.4265 75.9427 72.3238 75.5748 72.3238 75.1307V67.5341ZM79.8724 77.1591C79.1366 77.1591 78.5019 76.9967 77.9682 76.6719C77.4379 76.3438 77.0286 75.8864 76.7403 75.2997C76.4552 74.7098 76.3127 74.0237 76.3127 73.2415C76.3127 72.4593 76.4552 71.7699 76.7403 71.1733C77.0286 70.5734 77.4297 70.1061 77.9434 69.7713C78.4604 69.4332 79.0637 69.2642 79.753 69.2642C80.1508 69.2642 80.5435 69.3305 80.9313 69.4631C81.3191 69.5956 81.6721 69.8111 81.9903 70.1094C82.3084 70.4044 82.562 70.7955 82.7509 71.2827C82.9398 71.7699 83.0343 72.3698 83.0343 73.0824V73.5795H77.1479V72.5653H81.8411C81.8411 72.1345 81.7549 71.75 81.5826 71.4119C81.4136 71.0739 81.1716 70.8071 80.8567 70.6115C80.5452 70.416 80.1773 70.3182 79.753 70.3182C79.2857 70.3182 78.8814 70.4342 78.54 70.6662C78.2019 70.8949 77.9417 71.1932 77.7594 71.5611C77.5771 71.929 77.486 72.3234 77.486 72.7443V73.4205C77.486 73.9972 77.5854 74.486 77.7843 74.8871C77.9865 75.2848 78.2665 75.5881 78.6245 75.7969C78.9825 76.0024 79.3984 76.1051 79.8724 76.1051C80.1806 76.1051 80.459 76.062 80.7076 75.9759C80.9595 75.8864 81.1766 75.7538 81.3589 75.5781C81.5412 75.3991 81.682 75.1771 81.7815 74.9119L82.915 75.2301C82.7957 75.6146 82.5951 75.9527 82.3134 76.2443C82.0317 76.5327 81.6837 76.758 81.2694 76.9205C80.8551 77.0795 80.3894 77.1591 79.8724 77.1591ZM85.8524 66.8182V77H84.6791V66.8182H85.8524ZM88.617 79.8636C88.4182 79.8636 88.2409 79.8471 88.0851 79.8139C87.9293 79.7841 87.8216 79.7543 87.7619 79.7244L88.0602 78.6903C88.3453 78.7633 88.5972 78.7898 88.8159 78.7699C89.0347 78.75 89.2285 78.6522 89.3976 78.4766C89.5699 78.3042 89.7274 78.0241 89.8699 77.6364L90.0886 77.0398L87.2648 69.3636H88.5375L90.6455 75.4489H90.725L92.833 69.3636H94.1057L90.8642 78.1136C90.7184 78.508 90.5377 78.8345 90.3223 79.093C90.1069 79.3549 89.8566 79.5488 89.5716 79.6747C89.2899 79.8007 88.9717 79.8636 88.617 79.8636ZM101.559 77.179C101.075 77.179 100.636 77.0878 100.242 76.9055C99.8471 76.7199 99.5339 76.4531 99.3019 76.1051C99.0699 75.7538 98.9539 75.3295 98.9539 74.8324C98.9539 74.3949 99.0401 74.0402 99.2124 73.7685C99.3847 73.4934 99.6151 73.2779 99.9035 73.1222C100.192 72.9664 100.51 72.8504 100.858 72.7741C101.209 72.6946 101.562 72.6316 101.917 72.5852C102.381 72.5256 102.757 72.4808 103.045 72.451C103.337 72.4179 103.549 72.3632 103.682 72.2869C103.818 72.2107 103.886 72.0781 103.886 71.8892V71.8494C103.886 71.3589 103.751 70.9777 103.483 70.706C103.218 70.4342 102.815 70.2983 102.275 70.2983C101.715 70.2983 101.276 70.4209 100.957 70.6662C100.639 70.9115 100.416 71.1733 100.286 71.4517L99.1726 71.054C99.3715 70.59 99.6366 70.2287 99.9681 69.9702C100.303 69.7083 100.667 69.526 101.062 69.4233C101.46 69.3172 101.851 69.2642 102.235 69.2642C102.48 69.2642 102.762 69.294 103.08 69.3537C103.402 69.41 103.712 69.5277 104.01 69.7067C104.312 69.8857 104.562 70.1558 104.761 70.517C104.96 70.8783 105.059 71.3622 105.059 71.9688V77H103.886V75.9659H103.826C103.746 76.1316 103.614 76.3089 103.428 76.4979C103.243 76.6868 102.996 76.8475 102.688 76.9801C102.379 77.1127 102.003 77.179 101.559 77.179ZM101.738 76.125C102.202 76.125 102.593 76.0339 102.911 75.8516C103.233 75.6693 103.475 75.4339 103.637 75.1456C103.803 74.8572 103.886 74.554 103.886 74.2358V73.1619C103.836 73.2216 103.727 73.2763 103.558 73.326C103.392 73.3724 103.2 73.4138 102.981 73.4503C102.765 73.4834 102.555 73.5133 102.349 73.5398C102.147 73.563 101.983 73.5829 101.857 73.5994C101.552 73.6392 101.267 73.7038 101.002 73.7933C100.74 73.8795 100.528 74.0104 100.366 74.1861C100.207 74.3584 100.127 74.5937 100.127 74.892C100.127 75.2997 100.278 75.608 100.58 75.8168C100.885 76.0223 101.271 76.125 101.738 76.125ZM108.234 72.4062V77H107.061V69.3636H108.194V70.5568H108.293C108.472 70.169 108.744 69.8575 109.109 69.6222C109.473 69.3835 109.944 69.2642 110.521 69.2642C111.038 69.2642 111.49 69.3703 111.878 69.5824C112.266 69.7912 112.567 70.1094 112.783 70.5369C112.998 70.9612 113.106 71.4981 113.106 72.1477V77H111.933V72.2273C111.933 71.6274 111.777 71.16 111.465 70.8253C111.154 70.4872 110.726 70.3182 110.183 70.3182C109.808 70.3182 109.473 70.3994 109.178 70.5618C108.887 70.7242 108.656 70.9612 108.487 71.2727C108.318 71.5843 108.234 71.9621 108.234 72.4062ZM117.993 77.1591C117.357 77.1591 116.795 76.9983 116.308 76.6768C115.821 76.352 115.44 75.8946 115.165 75.3047C114.89 74.7114 114.752 74.0104 114.752 73.2017C114.752 72.3996 114.89 71.7036 115.165 71.1136C115.44 70.5237 115.823 70.0679 116.313 69.7464C116.804 69.425 117.37 69.2642 118.013 69.2642C118.511 69.2642 118.903 69.3471 119.192 69.5128C119.483 69.6752 119.705 69.8608 119.858 70.0696C120.014 70.2751 120.135 70.4441 120.221 70.5767H120.32V66.8182H121.493V77H120.36V75.8267H120.221C120.135 75.9659 120.012 76.1416 119.853 76.3537C119.694 76.5625 119.467 76.7498 119.172 76.9155C118.877 77.0779 118.484 77.1591 117.993 77.1591ZM118.153 76.1051C118.623 76.1051 119.021 75.9825 119.346 75.7372C119.671 75.4886 119.917 75.1456 120.087 74.7081C120.256 74.2673 120.34 73.7585 120.34 73.1818C120.34 72.6117 120.257 72.1129 120.091 71.6854C119.926 71.2545 119.681 70.9197 119.356 70.6811C119.031 70.4392 118.63 70.3182 118.153 70.3182C117.655 70.3182 117.241 70.4458 116.91 70.701C116.582 70.9529 116.335 71.2959 116.169 71.7301C116.007 72.161 115.925 72.6449 115.925 73.1818C115.925 73.7254 116.008 74.2192 116.174 74.6634C116.343 75.1042 116.591 75.4555 116.92 75.7173C117.251 75.9759 117.662 76.1051 118.153 76.1051ZM127.622 77V66.8182H128.795V70.5767H128.895C128.981 70.4441 129.1 70.2751 129.253 70.0696C129.408 69.8608 129.63 69.6752 129.919 69.5128C130.21 69.3471 130.605 69.2642 131.102 69.2642C131.745 69.2642 132.312 69.425 132.802 69.7464C133.293 70.0679 133.676 70.5237 133.951 71.1136C134.226 71.7036 134.363 72.3996 134.363 73.2017C134.363 74.0104 134.226 74.7114 133.951 75.3047C133.676 75.8946 133.294 76.352 132.807 76.6768C132.32 76.9983 131.758 77.1591 131.122 77.1591C130.631 77.1591 130.239 77.0779 129.944 76.9155C129.649 76.7498 129.422 76.5625 129.262 76.3537C129.103 76.1416 128.981 75.9659 128.895 75.8267H128.755V77H127.622ZM128.775 73.1818C128.775 73.7585 128.86 74.2673 129.029 74.7081C129.198 75.1456 129.445 75.4886 129.77 75.7372C130.094 75.9825 130.492 76.1051 130.963 76.1051C131.453 76.1051 131.863 75.9759 132.191 75.7173C132.522 75.4555 132.771 75.1042 132.936 74.6634C133.106 74.2192 133.19 73.7254 133.19 73.1818C133.19 72.6449 133.107 72.161 132.941 71.7301C132.779 71.2959 132.532 70.9529 132.201 70.701C131.873 70.4458 131.46 70.3182 130.963 70.3182C130.485 70.3182 130.084 70.4392 129.76 70.6811C129.435 70.9197 129.19 71.2545 129.024 71.6854C128.858 72.1129 128.775 72.6117 128.775 73.1818ZM139.22 77.1591C138.484 77.1591 137.849 76.9967 137.316 76.6719C136.785 76.3438 136.376 75.8864 136.088 75.2997C135.803 74.7098 135.66 74.0237 135.66 73.2415C135.66 72.4593 135.803 71.7699 136.088 71.1733C136.376 70.5734 136.777 70.1061 137.291 69.7713C137.808 69.4332 138.411 69.2642 139.1 69.2642C139.498 69.2642 139.891 69.3305 140.279 69.4631C140.667 69.5956 141.02 69.8111 141.338 70.1094C141.656 70.4044 141.909 70.7955 142.098 71.2827C142.287 71.7699 142.382 72.3698 142.382 73.0824V73.5795H136.495V72.5653H141.189C141.189 72.1345 141.102 71.75 140.93 71.4119C140.761 71.0739 140.519 70.8071 140.204 70.6115C139.893 70.416 139.525 70.3182 139.1 70.3182C138.633 70.3182 138.229 70.4342 137.887 70.6662C137.549 70.8949 137.289 71.1932 137.107 71.5611C136.925 71.929 136.833 72.3234 136.833 72.7443V73.4205C136.833 73.9972 136.933 74.486 137.132 74.8871C137.334 75.2848 137.614 75.5881 137.972 75.7969C138.33 76.0024 138.746 76.1051 139.22 76.1051C139.528 76.1051 139.806 76.062 140.055 75.9759C140.307 75.8864 140.524 75.7538 140.706 75.5781C140.889 75.3991 141.029 75.1771 141.129 74.9119L142.262 75.2301C142.143 75.6146 141.943 75.9527 141.661 76.2443C141.379 76.5327 141.031 76.758 140.617 76.9205C140.203 77.0795 139.737 77.1591 139.22 77.1591ZM154.068 69.3636L151.244 77H150.051L147.227 69.3636H148.5L150.608 75.4489H150.688L152.796 69.3636H154.068ZM155.477 77V69.3636H156.65V77H155.477ZM156.074 68.0909C155.845 68.0909 155.648 68.013 155.482 67.8572C155.32 67.7015 155.238 67.5142 155.238 67.2955C155.238 67.0767 155.32 66.8894 155.482 66.7337C155.648 66.5779 155.845 66.5 156.074 66.5C156.302 66.5 156.498 66.5779 156.66 66.7337C156.826 66.8894 156.909 67.0767 156.909 67.2955C156.909 67.5142 156.826 67.7015 156.66 67.8572C156.498 68.013 156.302 68.0909 156.074 68.0909ZM164.068 71.0739L163.014 71.3722C162.948 71.1965 162.85 71.0258 162.721 70.8601C162.595 70.6911 162.423 70.5518 162.204 70.4425C161.985 70.3331 161.705 70.2784 161.364 70.2784C160.896 70.2784 160.507 70.3861 160.195 70.6016C159.887 70.8137 159.733 71.0838 159.733 71.4119C159.733 71.7036 159.839 71.9339 160.051 72.103C160.263 72.272 160.595 72.4129 161.046 72.5256L162.179 72.804C162.862 72.9697 163.371 73.2232 163.705 73.5646C164.04 73.9027 164.208 74.3385 164.208 74.8722C164.208 75.3097 164.082 75.7008 163.83 76.0455C163.581 76.3902 163.233 76.6619 162.786 76.8608C162.338 77.0597 161.818 77.1591 161.225 77.1591C160.446 77.1591 159.801 76.9901 159.291 76.652C158.78 76.3139 158.457 75.8201 158.321 75.1705L159.435 74.892C159.541 75.303 159.741 75.6113 160.036 75.8168C160.335 76.0223 160.724 76.125 161.205 76.125C161.752 76.125 162.186 76.009 162.507 75.777C162.832 75.5417 162.994 75.2599 162.994 74.9318C162.994 74.6667 162.902 74.4446 162.716 74.2656C162.53 74.0833 162.245 73.9474 161.861 73.858L160.588 73.5597C159.889 73.3939 159.375 73.1371 159.047 72.7891C158.722 72.4377 158.56 71.9986 158.56 71.4716C158.56 71.0407 158.681 70.6596 158.923 70.3281C159.168 69.9967 159.501 69.7365 159.922 69.5476C160.346 69.3587 160.827 69.2642 161.364 69.2642C162.119 69.2642 162.713 69.4299 163.144 69.7614C163.578 70.0928 163.886 70.5303 164.068 71.0739ZM165.834 77V69.3636H167.007V77H165.834ZM166.43 68.0909C166.202 68.0909 166.004 68.013 165.839 67.8572C165.676 67.7015 165.595 67.5142 165.595 67.2955C165.595 67.0767 165.676 66.8894 165.839 66.7337C166.004 66.5779 166.202 66.5 166.43 66.5C166.659 66.5 166.855 66.5779 167.017 66.7337C167.183 66.8894 167.266 67.0767 167.266 67.2955C167.266 67.5142 167.183 67.7015 167.017 67.8572C166.855 68.013 166.659 68.0909 166.43 68.0909ZM169.175 77V66.8182H170.348V70.5767H170.448C170.534 70.4441 170.653 70.2751 170.806 70.0696C170.962 69.8608 171.184 69.6752 171.472 69.5128C171.764 69.3471 172.158 69.2642 172.655 69.2642C173.298 69.2642 173.865 69.425 174.355 69.7464C174.846 70.0679 175.229 70.5237 175.504 71.1136C175.779 71.7036 175.917 72.3996 175.917 73.2017C175.917 74.0104 175.779 74.7114 175.504 75.3047C175.229 75.8946 174.848 76.352 174.36 76.6768C173.873 76.9983 173.311 77.1591 172.675 77.1591C172.185 77.1591 171.792 77.0779 171.497 76.9155C171.202 76.7498 170.975 76.5625 170.816 76.3537C170.657 76.1416 170.534 75.9659 170.448 75.8267H170.309V77H169.175ZM170.328 73.1818C170.328 73.7585 170.413 74.2673 170.582 74.7081C170.751 75.1456 170.998 75.4886 171.323 75.7372C171.648 75.9825 172.045 76.1051 172.516 76.1051C173.007 76.1051 173.416 75.9759 173.744 75.7173C174.075 75.4555 174.324 75.1042 174.49 74.6634C174.659 74.2192 174.743 73.7254 174.743 73.1818C174.743 72.6449 174.66 72.161 174.495 71.7301C174.332 71.2959 174.085 70.9529 173.754 70.701C173.426 70.4458 173.013 70.3182 172.516 70.3182C172.039 70.3182 171.638 70.4392 171.313 70.6811C170.988 70.9197 170.743 71.2545 170.577 71.6854C170.411 72.1129 170.328 72.6117 170.328 73.1818ZM178.745 66.8182V77H177.571V66.8182H178.745ZM183.955 77.1591C183.219 77.1591 182.585 76.9967 182.051 76.6719C181.521 76.3438 181.112 75.8864 180.823 75.2997C180.538 74.7098 180.396 74.0237 180.396 73.2415C180.396 72.4593 180.538 71.7699 180.823 71.1733C181.112 70.5734 181.513 70.1061 182.026 69.7713C182.543 69.4332 183.147 69.2642 183.836 69.2642C184.234 69.2642 184.626 69.3305 185.014 69.4631C185.402 69.5956 185.755 69.8111 186.073 70.1094C186.391 70.4044 186.645 70.7955 186.834 71.2827C187.023 71.7699 187.117 72.3698 187.117 73.0824V73.5795H181.231V72.5653H185.924C185.924 72.1345 185.838 71.75 185.665 71.4119C185.496 71.0739 185.254 70.8071 184.94 70.6115C184.628 70.416 184.26 70.3182 183.836 70.3182C183.369 70.3182 182.964 70.4342 182.623 70.6662C182.285 70.8949 182.025 71.1932 181.842 71.5611C181.66 71.929 181.569 72.3234 181.569 72.7443V73.4205C181.569 73.9972 181.668 74.486 181.867 74.8871C182.069 75.2848 182.349 75.5881 182.707 75.7969C183.065 76.0024 183.481 76.1051 183.955 76.1051C184.263 76.1051 184.542 76.062 184.79 75.9759C185.042 75.8864 185.259 75.7538 185.442 75.5781C185.624 75.3991 185.765 75.1771 185.864 74.9119L186.998 75.2301C186.879 75.6146 186.678 75.9527 186.396 76.2443C186.115 76.5327 185.767 76.758 185.352 76.9205C184.938 77.0795 184.472 77.1591 183.955 77.1591ZM195.881 69.3636V70.358H191.923V69.3636H195.881ZM193.077 67.5341H194.25V74.8125C194.25 75.1439 194.298 75.3925 194.394 75.5582C194.493 75.7206 194.619 75.83 194.772 75.8864C194.928 75.9394 195.092 75.9659 195.264 75.9659C195.393 75.9659 195.499 75.9593 195.582 75.946C195.665 75.9295 195.731 75.9162 195.781 75.9062L196.02 76.9602C195.94 76.9901 195.829 77.0199 195.687 77.0497C195.544 77.0829 195.363 77.0994 195.145 77.0994C194.813 77.0994 194.488 77.0282 194.17 76.8857C193.855 76.7431 193.594 76.526 193.385 76.2344C193.179 75.9427 193.077 75.5748 193.077 75.1307V67.5341ZM200.526 77.1591C199.836 77.1591 199.231 76.995 198.711 76.6669C198.194 76.3388 197.79 75.8797 197.498 75.2898C197.21 74.6998 197.065 74.0104 197.065 73.2216C197.065 72.4261 197.21 71.7318 197.498 71.1385C197.79 70.5452 198.194 70.0845 198.711 69.7564C199.231 69.4283 199.836 69.2642 200.526 69.2642C201.215 69.2642 201.818 69.4283 202.335 69.7564C202.856 70.0845 203.26 70.5452 203.548 71.1385C203.84 71.7318 203.986 72.4261 203.986 73.2216C203.986 74.0104 203.84 74.6998 203.548 75.2898C203.26 75.8797 202.856 76.3388 202.335 76.6669C201.818 76.995 201.215 77.1591 200.526 77.1591ZM200.526 76.1051C201.049 76.1051 201.48 75.9709 201.818 75.7024C202.156 75.4339 202.407 75.081 202.569 74.6435C202.731 74.206 202.813 73.732 202.813 73.2216C202.813 72.7112 202.731 72.2356 202.569 71.7947C202.407 71.3539 202.156 70.9976 201.818 70.7259C201.48 70.4541 201.049 70.3182 200.526 70.3182C200.002 70.3182 199.571 70.4541 199.233 70.7259C198.895 70.9976 198.645 71.3539 198.482 71.7947C198.32 72.2356 198.239 72.7112 198.239 73.2216C198.239 73.732 198.32 74.206 198.482 74.6435C198.645 75.081 198.895 75.4339 199.233 75.7024C199.571 75.9709 200.002 76.1051 200.526 76.1051ZM211.682 77.179C211.198 77.179 210.759 77.0878 210.364 76.9055C209.97 76.7199 209.656 76.4531 209.424 76.1051C209.192 75.7538 209.076 75.3295 209.076 74.8324C209.076 74.3949 209.163 74.0402 209.335 73.7685C209.507 73.4934 209.738 73.2779 210.026 73.1222C210.314 72.9664 210.633 72.8504 210.981 72.7741C211.332 72.6946 211.685 72.6316 212.04 72.5852C212.504 72.5256 212.88 72.4808 213.168 72.451C213.46 72.4179 213.672 72.3632 213.804 72.2869C213.94 72.2107 214.008 72.0781 214.008 71.8892V71.8494C214.008 71.3589 213.874 70.9777 213.606 70.706C213.34 70.4342 212.938 70.2983 212.397 70.2983C211.837 70.2983 211.398 70.4209 211.08 70.6662C210.762 70.9115 210.538 71.1733 210.409 71.4517L209.295 71.054C209.494 70.59 209.759 70.2287 210.091 69.9702C210.425 69.7083 210.79 69.526 211.184 69.4233C211.582 69.3172 211.973 69.2642 212.358 69.2642C212.603 69.2642 212.885 69.294 213.203 69.3537C213.524 69.41 213.834 69.5277 214.133 69.7067C214.434 69.8857 214.684 70.1558 214.883 70.517C215.082 70.8783 215.182 71.3622 215.182 71.9688V77H214.008V75.9659H213.949C213.869 76.1316 213.736 76.3089 213.551 76.4979C213.365 76.6868 213.118 76.8475 212.81 76.9801C212.502 77.1127 212.126 77.179 211.682 77.179ZM211.861 76.125C212.325 76.125 212.716 76.0339 213.034 75.8516C213.355 75.6693 213.597 75.4339 213.76 75.1456C213.925 74.8572 214.008 74.554 214.008 74.2358V73.1619C213.959 73.2216 213.849 73.2763 213.68 73.326C213.514 73.3724 213.322 73.4138 213.103 73.4503C212.888 73.4834 212.678 73.5133 212.472 73.5398C212.27 73.563 212.106 73.5829 211.98 73.5994C211.675 73.6392 211.39 73.7038 211.125 73.7933C210.863 73.8795 210.651 74.0104 210.488 74.1861C210.329 74.3584 210.25 74.5937 210.25 74.892C210.25 75.2997 210.401 75.608 210.702 75.8168C211.007 76.0223 211.393 76.125 211.861 76.125ZM218.356 66.8182V77H217.183V66.8182H218.356ZM221.539 66.8182V77H220.365V66.8182H221.539ZM232.158 73.8778V69.3636H233.331V77H232.158V75.7074H232.078C231.899 76.0952 231.621 76.425 231.243 76.6967C230.865 76.9652 230.388 77.0994 229.811 77.0994C229.334 77.0994 228.91 76.995 228.538 76.7862C228.167 76.5741 227.875 76.2559 227.663 75.8317C227.451 75.4041 227.345 74.8655 227.345 74.2159V69.3636H228.518V74.1364C228.518 74.6932 228.674 75.1373 228.986 75.4688C229.301 75.8002 229.702 75.9659 230.189 75.9659C230.481 75.9659 230.777 75.8913 231.079 75.7422C231.384 75.593 231.639 75.3643 231.844 75.0561C232.053 74.7479 232.158 74.3551 232.158 73.8778ZM240.749 71.0739L239.695 71.3722C239.629 71.1965 239.531 71.0258 239.402 70.8601C239.276 70.6911 239.103 70.5518 238.885 70.4425C238.666 70.3331 238.386 70.2784 238.044 70.2784C237.577 70.2784 237.188 70.3861 236.876 70.6016C236.568 70.8137 236.414 71.0838 236.414 71.4119C236.414 71.7036 236.52 71.9339 236.732 72.103C236.944 72.272 237.275 72.4129 237.726 72.5256L238.86 72.804C239.543 72.9697 240.051 73.2232 240.386 73.5646C240.721 73.9027 240.888 74.3385 240.888 74.8722C240.888 75.3097 240.762 75.7008 240.51 76.0455C240.262 76.3902 239.914 76.6619 239.466 76.8608C239.019 77.0597 238.499 77.1591 237.905 77.1591C237.126 77.1591 236.482 76.9901 235.971 76.652C235.461 76.3139 235.138 75.8201 235.002 75.1705L236.115 74.892C236.222 75.303 236.422 75.6113 236.717 75.8168C237.015 76.0223 237.405 76.125 237.885 76.125C238.432 76.125 238.866 76.009 239.188 75.777C239.513 75.5417 239.675 75.2599 239.675 74.9318C239.675 74.6667 239.582 74.4446 239.397 74.2656C239.211 74.0833 238.926 73.9474 238.542 73.858L237.269 73.5597C236.57 73.3939 236.056 73.1371 235.728 72.7891C235.403 72.4377 235.24 71.9986 235.24 71.4716C235.24 71.0407 235.361 70.6596 235.603 70.3281C235.849 69.9967 236.182 69.7365 236.603 69.5476C237.027 69.3587 237.507 69.2642 238.044 69.2642C238.8 69.2642 239.393 69.4299 239.824 69.7614C240.258 70.0928 240.567 70.5303 240.749 71.0739ZM245.716 77.1591C244.98 77.1591 244.346 76.9967 243.812 76.6719C243.282 76.3438 242.872 75.8864 242.584 75.2997C242.299 74.7098 242.156 74.0237 242.156 73.2415C242.156 72.4593 242.299 71.7699 242.584 71.1733C242.872 70.5734 243.273 70.1061 243.787 69.7713C244.304 69.4332 244.907 69.2642 245.597 69.2642C245.994 69.2642 246.387 69.3305 246.775 69.4631C247.163 69.5956 247.516 69.8111 247.834 70.1094C248.152 70.4044 248.406 70.7955 248.595 71.2827C248.784 71.7699 248.878 72.3698 248.878 73.0824V73.5795H242.992V72.5653H247.685C247.685 72.1345 247.599 71.75 247.426 71.4119C247.257 71.0739 247.015 70.8071 246.7 70.6115C246.389 70.416 246.021 70.3182 245.597 70.3182C245.129 70.3182 244.725 70.4342 244.384 70.6662C244.046 70.8949 243.785 71.1932 243.603 71.5611C243.421 71.929 243.33 72.3234 243.33 72.7443V73.4205C243.33 73.9972 243.429 74.486 243.628 74.8871C243.83 75.2848 244.11 75.5881 244.468 75.7969C244.826 76.0024 245.242 76.1051 245.716 76.1051C246.024 76.1051 246.303 76.062 246.551 75.9759C246.803 75.8864 247.02 75.7538 247.203 75.5781C247.385 75.3991 247.526 75.1771 247.625 74.9119L248.759 75.2301C248.639 75.6146 248.439 75.9527 248.157 76.2443C247.875 76.5327 247.527 76.758 247.113 76.9205C246.699 77.0795 246.233 77.1591 245.716 77.1591ZM250.523 77V69.3636H251.656V70.517H251.736C251.875 70.1392 252.127 69.8326 252.492 69.5973C252.856 69.362 253.267 69.2443 253.724 69.2443C253.811 69.2443 253.918 69.246 254.048 69.2493C254.177 69.2526 254.275 69.2576 254.341 69.2642V70.4574C254.301 70.4474 254.21 70.4325 254.068 70.4126C253.928 70.3894 253.781 70.3778 253.625 70.3778C253.254 70.3778 252.922 70.4557 252.631 70.6115C252.342 70.764 252.114 70.9761 251.945 71.2479C251.779 71.5163 251.696 71.8229 251.696 72.1676V77H250.523ZM261.001 71.0739L259.947 71.3722C259.881 71.1965 259.783 71.0258 259.654 70.8601C259.528 70.6911 259.355 70.5518 259.136 70.4425C258.918 70.3331 258.638 70.2784 258.296 70.2784C257.829 70.2784 257.44 70.3861 257.128 70.6016C256.82 70.8137 256.666 71.0838 256.666 71.4119C256.666 71.7036 256.772 71.9339 256.984 72.103C257.196 72.272 257.527 72.4129 257.978 72.5256L259.112 72.804C259.794 72.9697 260.303 73.2232 260.638 73.5646C260.973 73.9027 261.14 74.3385 261.14 74.8722C261.14 75.3097 261.014 75.7008 260.762 76.0455C260.514 76.3902 260.166 76.6619 259.718 76.8608C259.271 77.0597 258.75 77.1591 258.157 77.1591C257.378 77.1591 256.734 76.9901 256.223 76.652C255.713 76.3139 255.39 75.8201 255.254 75.1705L256.367 74.892C256.473 75.303 256.674 75.6113 256.969 75.8168C257.267 76.0223 257.657 76.125 258.137 76.125C258.684 76.125 259.118 76.009 259.44 75.777C259.765 75.5417 259.927 75.2599 259.927 74.9318C259.927 74.6667 259.834 74.4446 259.649 74.2656C259.463 74.0833 259.178 73.9474 258.793 73.858L257.521 73.5597C256.821 73.3939 256.308 73.1371 255.98 72.7891C255.655 72.4377 255.492 71.9986 255.492 71.4716C255.492 71.0407 255.613 70.6596 255.855 70.3281C256.101 69.9967 256.434 69.7365 256.855 69.5476C257.279 69.3587 257.759 69.2642 258.296 69.2642C259.052 69.2642 259.645 69.4299 260.076 69.7614C260.51 70.0928 260.819 70.5303 261.001 71.0739ZM263.621 77.0795C263.376 77.0795 263.166 76.9917 262.99 76.8161C262.814 76.6404 262.726 76.4299 262.726 76.1847C262.726 75.9394 262.814 75.7289 262.99 75.5533C263.166 75.3776 263.376 75.2898 263.621 75.2898C263.867 75.2898 264.077 75.3776 264.253 75.5533C264.428 75.7289 264.516 75.9394 264.516 76.1847C264.516 76.3471 264.475 76.4962 264.392 76.6321C264.312 76.768 264.205 76.8774 264.069 76.9602C263.936 77.0398 263.787 77.0795 263.621 77.0795Z" fill="#4A4A4A"/>
<path d="M455.5 20.5L446.5 29.5M446.5 20.5L455.5 29.5" stroke="#040404" stroke-width="1.5" stroke-linecap="round" stroke-linejoin="round"/>
<mask id="path-6-inside-1_4401_31488" fill="white">
<path d="M0 98H476V162H0V98Z"/>
</mask>
<path d="M0 98V99H476V98V97H0V98Z" fill="#EBEBEB" mask="url(#path-6-inside-1_4401_31488)"/>
<path d="M16 122C16 117.582 19.5817 114 24 114H228C232.418 114 236 117.582 236 122V138C236 142.418 232.418 146 228 146H24C19.5817 146 16 142.418 16 138V122Z" fill="#040404" fill-opacity="0.04"/>
<path d="M112.786 128.129H111.235C111.175 127.798 111.064 127.506 110.901 127.254C110.739 127.002 110.54 126.789 110.305 126.613C110.069 126.437 109.806 126.305 109.514 126.215C109.226 126.126 108.919 126.081 108.595 126.081C108.008 126.081 107.483 126.228 107.019 126.523C106.558 126.818 106.193 127.251 105.925 127.821C105.66 128.391 105.527 129.087 105.527 129.909C105.527 130.738 105.66 131.437 105.925 132.007C106.193 132.577 106.56 133.008 107.024 133.3C107.488 133.591 108.01 133.737 108.59 133.737C108.911 133.737 109.216 133.694 109.504 133.608C109.796 133.518 110.06 133.388 110.295 133.215C110.53 133.043 110.729 132.832 110.891 132.584C111.057 132.332 111.172 132.044 111.235 131.719L112.786 131.724C112.703 132.224 112.542 132.685 112.303 133.106C112.068 133.523 111.765 133.885 111.394 134.19C111.026 134.491 110.605 134.725 110.131 134.891C109.657 135.056 109.14 135.139 108.58 135.139C107.698 135.139 106.913 134.93 106.223 134.513C105.534 134.092 104.99 133.49 104.592 132.708C104.198 131.926 104.001 130.993 104.001 129.909C104.001 128.822 104.2 127.889 104.597 127.11C104.995 126.328 105.539 125.728 106.228 125.31C106.918 124.889 107.701 124.679 108.58 124.679C109.12 124.679 109.624 124.757 110.091 124.913C110.562 125.065 110.984 125.29 111.359 125.589C111.733 125.884 112.043 126.245 112.288 126.673C112.534 127.097 112.699 127.582 112.786 128.129ZM116.587 135.169C116.103 135.169 115.665 135.08 115.274 134.901C114.883 134.718 114.573 134.455 114.345 134.11C114.119 133.765 114.007 133.343 114.007 132.842C114.007 132.411 114.089 132.057 114.255 131.778C114.421 131.5 114.645 131.28 114.926 131.117C115.208 130.955 115.523 130.832 115.871 130.749C116.219 130.666 116.574 130.603 116.935 130.56C117.392 130.507 117.763 130.464 118.049 130.431C118.334 130.395 118.541 130.337 118.67 130.257C118.799 130.178 118.864 130.048 118.864 129.869V129.835C118.864 129.4 118.741 129.064 118.496 128.825C118.254 128.587 117.893 128.467 117.412 128.467C116.912 128.467 116.517 128.578 116.229 128.8C115.944 129.019 115.747 129.263 115.637 129.531L114.24 129.213C114.406 128.749 114.648 128.375 114.966 128.089C115.288 127.801 115.657 127.592 116.075 127.463C116.492 127.33 116.932 127.264 117.392 127.264C117.697 127.264 118.02 127.301 118.362 127.374C118.706 127.443 119.028 127.572 119.326 127.761C119.628 127.95 119.875 128.22 120.067 128.572C120.259 128.92 120.355 129.372 120.355 129.929V135H118.904V133.956H118.844C118.748 134.148 118.604 134.337 118.411 134.523C118.219 134.708 117.972 134.862 117.671 134.985C117.369 135.108 117.008 135.169 116.587 135.169ZM116.91 133.976C117.321 133.976 117.672 133.895 117.964 133.732C118.259 133.57 118.483 133.358 118.635 133.096C118.791 132.831 118.869 132.547 118.869 132.246V131.261C118.816 131.314 118.713 131.364 118.561 131.411C118.411 131.454 118.241 131.492 118.049 131.525C117.856 131.555 117.669 131.583 117.487 131.609C117.304 131.633 117.152 131.652 117.029 131.669C116.741 131.705 116.477 131.767 116.239 131.853C116.004 131.939 115.815 132.063 115.672 132.226C115.533 132.385 115.463 132.597 115.463 132.862C115.463 133.23 115.599 133.509 115.871 133.697C116.143 133.883 116.489 133.976 116.91 133.976ZM123.682 130.466V135H122.195V127.364H123.622V128.607H123.717C123.892 128.202 124.167 127.877 124.542 127.632C124.92 127.387 125.395 127.264 125.969 127.264C126.489 127.264 126.945 127.374 127.336 127.592C127.727 127.808 128.03 128.129 128.246 128.557C128.461 128.984 128.569 129.513 128.569 130.143V135H127.082V130.322C127.082 129.768 126.938 129.336 126.65 129.024C126.361 128.709 125.965 128.552 125.462 128.552C125.117 128.552 124.81 128.626 124.542 128.776C124.277 128.925 124.066 129.143 123.91 129.432C123.758 129.717 123.682 130.062 123.682 130.466ZM133.639 135.154C132.9 135.154 132.264 134.987 131.73 134.652C131.2 134.314 130.792 133.848 130.507 133.255C130.222 132.662 130.079 131.982 130.079 131.217C130.079 130.441 130.225 129.757 130.517 129.163C130.809 128.567 131.22 128.101 131.75 127.766C132.28 127.432 132.905 127.264 133.624 127.264C134.204 127.264 134.721 127.372 135.175 127.587C135.629 127.799 135.996 128.098 136.274 128.482C136.556 128.867 136.723 129.316 136.776 129.83H135.329C135.25 129.472 135.068 129.163 134.783 128.905C134.501 128.646 134.123 128.517 133.649 128.517C133.235 128.517 132.872 128.626 132.56 128.845C132.252 129.061 132.012 129.369 131.839 129.77C131.667 130.168 131.581 130.638 131.581 131.182C131.581 131.739 131.665 132.219 131.834 132.624C132.003 133.028 132.242 133.341 132.55 133.563C132.862 133.785 133.228 133.896 133.649 133.896C133.931 133.896 134.186 133.845 134.415 133.742C134.647 133.636 134.841 133.485 134.996 133.29C135.155 133.094 135.266 132.859 135.329 132.584H136.776C136.723 133.078 136.562 133.518 136.294 133.906C136.025 134.294 135.666 134.599 135.215 134.821C134.768 135.043 134.242 135.154 133.639 135.154ZM141.517 135.154C140.765 135.154 140.117 134.993 139.573 134.672C139.033 134.347 138.615 133.891 138.32 133.305C138.029 132.715 137.883 132.024 137.883 131.232C137.883 130.449 138.029 129.76 138.32 129.163C138.615 128.567 139.026 128.101 139.553 127.766C140.084 127.432 140.703 127.264 141.413 127.264C141.843 127.264 142.261 127.335 142.665 127.478C143.07 127.621 143.433 127.844 143.754 128.149C144.076 128.454 144.329 128.85 144.515 129.337C144.7 129.821 144.793 130.41 144.793 131.102V131.629H138.723V130.516H143.337C143.337 130.125 143.257 129.778 143.098 129.477C142.939 129.172 142.715 128.931 142.427 128.756C142.142 128.58 141.807 128.492 141.423 128.492C141.005 128.492 140.64 128.595 140.329 128.8C140.021 129.003 139.782 129.268 139.613 129.596C139.447 129.921 139.364 130.274 139.364 130.655V131.525C139.364 132.035 139.454 132.469 139.633 132.827C139.815 133.185 140.069 133.459 140.393 133.648C140.718 133.833 141.098 133.926 141.532 133.926C141.814 133.926 142.071 133.886 142.303 133.807C142.535 133.724 142.735 133.601 142.904 133.439C143.073 133.277 143.202 133.076 143.292 132.837L144.699 133.091C144.586 133.505 144.384 133.868 144.092 134.18C143.804 134.488 143.441 134.728 143.004 134.901C142.569 135.07 142.074 135.154 141.517 135.154ZM147.789 124.818V135H146.303V124.818H147.789Z" fill="#0F0F0F"/>
<path d="M240 122C240 117.582 243.582 114 248 114H452C456.418 114 460 117.582 460 122V138C460 142.418 456.418 146 452 146H248C243.582 146 240 142.418 240 138V122Z" fill="#0A61F9"/>
<path d="M327.066 135V124.818H330.695C331.487 124.818 332.144 124.962 332.664 125.251C333.184 125.539 333.574 125.933 333.832 126.434C334.091 126.931 334.22 127.491 334.22 128.114C334.22 128.741 334.089 129.304 333.827 129.805C333.569 130.302 333.178 130.696 332.654 130.988C332.134 131.276 331.479 131.42 330.69 131.42H328.195V130.118H330.551C331.052 130.118 331.458 130.032 331.769 129.859C332.081 129.684 332.309 129.445 332.455 129.143C332.601 128.842 332.674 128.499 332.674 128.114C332.674 127.73 332.601 127.388 332.455 127.09C332.309 126.792 332.079 126.558 331.764 126.389C331.453 126.22 331.042 126.136 330.531 126.136H328.602V135H327.066ZM340.599 131.833V127.364H342.091V135H340.629V133.678H340.549C340.374 134.085 340.092 134.425 339.704 134.697C339.32 134.965 338.841 135.099 338.267 135.099C337.777 135.099 337.343 134.992 336.965 134.776C336.59 134.558 336.295 134.234 336.08 133.807C335.868 133.379 335.762 132.851 335.762 132.221V127.364H337.248V132.042C337.248 132.562 337.392 132.977 337.681 133.285C337.969 133.593 338.344 133.747 338.804 133.747C339.083 133.747 339.359 133.678 339.635 133.538C339.913 133.399 340.143 133.189 340.326 132.907C340.511 132.625 340.602 132.267 340.599 131.833ZM344.067 135V124.818H345.554V128.602H345.643C345.729 128.442 345.854 128.259 346.016 128.05C346.178 127.841 346.404 127.659 346.692 127.503C346.981 127.344 347.362 127.264 347.836 127.264C348.452 127.264 349.002 127.42 349.486 127.732C349.97 128.043 350.35 128.492 350.625 129.079C350.903 129.665 351.042 130.371 351.042 131.197C351.042 132.022 350.905 132.73 350.63 133.32C350.355 133.906 349.977 134.359 349.496 134.677C349.016 134.992 348.467 135.149 347.851 135.149C347.387 135.149 347.007 135.071 346.712 134.915C346.42 134.76 346.192 134.577 346.026 134.369C345.86 134.16 345.733 133.974 345.643 133.812H345.519V135H344.067ZM345.524 131.182C345.524 131.719 345.602 132.189 345.758 132.594C345.913 132.998 346.139 133.315 346.434 133.543C346.729 133.769 347.09 133.881 347.517 133.881C347.962 133.881 348.333 133.764 348.631 133.528C348.929 133.29 349.155 132.967 349.307 132.559C349.463 132.151 349.541 131.692 349.541 131.182C349.541 130.678 349.465 130.226 349.312 129.825C349.163 129.424 348.938 129.107 348.636 128.875C348.338 128.643 347.965 128.527 347.517 128.527C347.087 128.527 346.722 128.638 346.424 128.86C346.129 129.082 345.905 129.392 345.753 129.79C345.6 130.187 345.524 130.652 345.524 131.182ZM354.058 124.818V135H352.572V124.818H354.058ZM355.918 135V127.364H357.404V135H355.918ZM356.669 126.185C356.41 126.185 356.188 126.099 356.002 125.927C355.82 125.751 355.729 125.542 355.729 125.3C355.729 125.055 355.82 124.846 356.002 124.674C356.188 124.498 356.41 124.411 356.669 124.411C356.927 124.411 357.148 124.498 357.33 124.674C357.515 124.846 357.608 125.055 357.608 125.3C357.608 125.542 357.515 125.751 357.33 125.927C357.148 126.099 356.927 126.185 356.669 126.185ZM364.987 129.228L363.639 129.467C363.583 129.294 363.493 129.13 363.371 128.974C363.251 128.819 363.089 128.691 362.884 128.592C362.678 128.492 362.421 128.442 362.113 128.442C361.692 128.442 361.341 128.537 361.059 128.726C360.777 128.911 360.636 129.152 360.636 129.447C360.636 129.702 360.731 129.907 360.92 130.063C361.109 130.219 361.414 130.347 361.835 130.446L363.048 130.724C363.75 130.887 364.274 131.137 364.619 131.475C364.963 131.813 365.136 132.252 365.136 132.793C365.136 133.25 365.003 133.658 364.738 134.016C364.476 134.37 364.11 134.649 363.639 134.851C363.172 135.053 362.63 135.154 362.014 135.154C361.158 135.154 360.461 134.972 359.92 134.607C359.38 134.239 359.049 133.717 358.926 133.041L360.363 132.822C360.452 133.197 360.636 133.48 360.915 133.673C361.193 133.862 361.556 133.956 362.004 133.956C362.491 133.956 362.88 133.855 363.172 133.653C363.464 133.447 363.609 133.197 363.609 132.902C363.609 132.663 363.52 132.463 363.341 132.3C363.165 132.138 362.895 132.015 362.531 131.933L361.238 131.649C360.525 131.487 359.998 131.228 359.657 130.874C359.319 130.519 359.15 130.07 359.15 129.526C359.15 129.076 359.276 128.681 359.528 128.343C359.78 128.005 360.128 127.741 360.572 127.553C361.016 127.36 361.525 127.264 362.098 127.264C362.923 127.264 363.573 127.443 364.047 127.801C364.521 128.156 364.834 128.631 364.987 129.228ZM368.117 130.466V135H366.63V124.818H368.097V128.607H368.191C368.37 128.196 368.644 127.869 369.011 127.627C369.379 127.385 369.86 127.264 370.453 127.264C370.977 127.264 371.434 127.372 371.825 127.587C372.22 127.803 372.525 128.124 372.74 128.552C372.959 128.976 373.068 129.506 373.068 130.143V135H371.582V130.322C371.582 129.762 371.438 129.327 371.149 129.019C370.861 128.708 370.46 128.552 369.946 128.552C369.595 128.552 369.28 128.626 369.002 128.776C368.726 128.925 368.509 129.143 368.35 129.432C368.194 129.717 368.117 130.062 368.117 130.466Z" fill="#FEFEFE"/>
</g>
<path d="M16 0.5H460C468.56 0.5 475.5 7.43959 475.5 16V146C475.5 154.56 468.56 161.5 460 161.5H16C7.43959 161.5 0.5 154.56 0.5 146V16C0.5 7.43959 7.43959 0.5 16 0.5Z" stroke="#EBEBEB"/>
<defs>
<clipPath id="clip0_4401_31488">
<path d="M0 16C0 7.16344 7.16345 0 16 0H460C468.837 0 476 7.16344 476 16V146C476 154.837 468.837 162 460 162H16C7.16344 162 0 154.837 0 146V16Z" fill="white"/>
</clipPath>
</defs>
</svg>
